<?xml version="1.0" standalone="no"?>
<!DOCTYPE svg PUBLIC "-//W3C//DTD SVG 1.1//EN" "http://www.w3.org/Graphics/SVG/1.1/DTD/svg11.dtd" >
<svg xmlns="http://www.w3.org/2000/svg">
<metadata></metadata>
<defs>
<font id="pf_bulletin_sans_probold" horiz-adv-x="1130" >
<font-face units-per-em="2048" ascent="1536" descent="-512" />
<missing-glyph horiz-adv-x="600" />
<glyph unicode="&#xfb01;" horiz-adv-x="1093" d="M16 793v153l134 41v119q0 76 23.5 144.5t70.5 120.5t117.5 82t162.5 30q74 0 164 -16.5t207 -75.5l-68 -197q-55 14 -115.5 24.5t-113.5 10.5q-72 0 -110.5 -33t-38.5 -102v-107h542v-987h-293v793h-249v-793h-299v793h-134z" />
<glyph unicode="&#xfb02;" horiz-adv-x="1136" d="M16 793v153l134 41v119q0 176 91 275.5t275 99.5q109 0 236 -35h274v-1446h-299v1202q-35 10 -73 15.5t-68 5.5q-66 0 -101.5 -32t-35.5 -97v-107h186v-194h-186v-793h-299v793h-134z" />
<glyph horiz-adv-x="2048" />
<glyph horiz-adv-x="2048" />
<glyph unicode="&#xd;" horiz-adv-x="2048" />
<glyph unicode=" "  horiz-adv-x="600" />
<glyph unicode="&#x09;" horiz-adv-x="600" />
<glyph unicode="&#xa0;" horiz-adv-x="600" />
<glyph unicode="!" horiz-adv-x="724" d="M195 150q0 70 48 116.5t115 46.5q68 0 115 -47t47 -116q0 -70 -47 -118t-115 -48t-115.5 48t-47.5 118zM211 1399h299l-41 -969h-215z" />
<glyph unicode="&#x22;" horiz-adv-x="917" d="M143 1448h265l-29 -555h-205zM512 1448h262l-29 -555h-202z" />
<glyph unicode="#" d="M33 305l30 168h166l47 309h-178l31 166h172l51 322h183l-48 -322h236l49 322h184l-49 -322h189l-29 -166h-182l-47 -309h184l-31 -168h-178l-51 -315h-187l52 315h-236l-49 -315h-186l49 315h-172zM416 473h233l47 309h-231z" />
<glyph unicode="$" d="M129 975q0 88 26.5 152.5t72.5 109.5t109.5 70.5t135.5 35.5v168h148v-161q74 -4 160.5 -23.5t150.5 -54.5l-66 -209q-76 31 -151.5 42t-108.5 11q-92 0 -135 -30.5t-43 -112.5q0 -66 45 -95.5t125 -54.5q117 -37 193.5 -74.5t123 -87t65.5 -116t19 -162.5 q0 -94 -27.5 -163.5t-76.5 -119t-118.5 -78t-155.5 -38.5v-170h-148v166q-82 4 -174 22t-160 59l76 215q43 -18 86 -29t81 -18.5t68.5 -9.5t47.5 -2q109 0 153.5 36t44.5 126q0 41 -9 68.5t-30.5 48t-58.5 37t-90 32.5q-90 29 -161 58.5t-119 72.5t-73.5 109.5t-25.5 169.5z " />
<glyph unicode="%" horiz-adv-x="1781" d="M55 926q0 86 17.5 163.5t58.5 138t107.5 96.5t164.5 36t165 -35t107 -95.5t57.5 -139t17.5 -164.5q0 -92 -15.5 -172t-54.5 -139.5t-107 -94.5t-170 -35t-168.5 35t-106.5 94.5t-56.5 139.5t-16.5 172zM287 926q0 -123 22.5 -198t93.5 -75q70 0 92.5 77t22.5 196 q0 53 -4 102t-16.5 86t-35 59.5t-59.5 22.5t-59 -21.5t-35.5 -58.5t-17.5 -86t-4 -104zM563 -53l457 1466h194l-458 -1466h-193zM1028 414q0 86 17.5 163.5t58.5 138t107.5 96.5t164.5 36t165 -35t107 -95.5t57 -139t17 -164.5q0 -90 -15 -170t-54 -139.5t-107 -94.5 t-170 -35t-168.5 34t-106.5 93.5t-56.5 139.5t-16.5 172zM1260 414q0 -123 22.5 -198t93.5 -75q70 0 92.5 77t22.5 196q0 55 -4 104t-16.5 86t-35 58.5t-59.5 21.5t-59.5 -20.5t-35.5 -57.5t-17 -86t-4 -106z" />
<glyph unicode="&#x26;" horiz-adv-x="1411" d="M76 354q0 145 77.5 253t192.5 179q-47 55 -82 124t-35 151q0 78 30 140.5t80 106.5t117.5 67.5t143.5 23.5q72 0 137.5 -22.5t114.5 -62.5t77.5 -98.5t28.5 -128.5q0 -68 -21.5 -124t-55 -101t-74.5 -81t-80 -62l111 -141q61 123 156.5 180t222.5 57q31 0 61.5 -3 t60.5 -7l4 -207q-78 -2 -132 -18.5t-92 -45t-61.5 -68.5t-37.5 -91l311 -375h-332q-31 37 -55 68q-23 27 -42 51t-25 35q-72 -80 -167.5 -130.5t-228.5 -50.5q-92 0 -166.5 26t-128 75t-82 119.5t-28.5 160.5zM352 371q0 -27 8.5 -52.5t27 -47t48 -35t72.5 -13.5 q27 0 54.5 12.5t54 31t48 40t37.5 41.5q-10 12 -37.5 47t-59.5 74t-60.5 74t-36.5 47q-63 -41 -109.5 -94.5t-46.5 -124.5zM494 1059q0 -41 26.5 -83t57.5 -77q47 29 81.5 69t34.5 87q0 43 -23.5 77.5t-70.5 34.5q-53 0 -79.5 -32.5t-26.5 -75.5z" />
<glyph unicode="'" horiz-adv-x="557" d="M143 1448h265l-29 -555h-205z" />
<glyph unicode="(" horiz-adv-x="731" d="M86 524q0 172 44 324.5t108.5 277.5t136 220.5t129.5 152.5l164 -113q-74 -102 -131.5 -198t-95.5 -198.5t-57 -216.5t-19 -249q0 -250 73.5 -454.5t218.5 -395.5l-168 -114q-63 66 -133.5 164t-131 221t-99.5 269t-39 310z" />
<glyph unicode=")" horiz-adv-x="731" d="M63 1386l164 113q57 -57 129 -152.5t136.5 -220.5t108.5 -277.5t44 -324.5q0 -164 -40 -310t-99.5 -269t-131 -221.5t-134.5 -163.5l-168 114q147 190 221 395t74 455q0 141 -21.5 259t-61.5 221.5t-95.5 196.5t-125.5 185z" />
<glyph unicode="*" horiz-adv-x="997" d="M147 1038l199 33v6l-168 115q31 41 61.5 83t63.5 83l129 -158q2 8 6 35t7.5 58.5t5.5 63.5t2 50q53 -8 103 -14.5t103 -12.5l-73 -200q2 0 4 -2l182 94q20 -47 39.5 -95.5t38.5 -97.5q-49 -8 -99.5 -16t-101.5 -19v-6l172 -112l-129 -166l-131 162q0 -51 -6 -104.5 t-10 -104.5l-205 28l72 195l-4 4l-179 -92z" />
<glyph unicode="+" d="M82 418v209h377v381h211v-381h379v-209h-379v-379h-211v379h-377z" />
<glyph unicode="," horiz-adv-x="688" d="M143 -227l70 540h340l-221 -587z" />
<glyph unicode="-" horiz-adv-x="747" d="M92 422v215h563v-215h-563z" />
<glyph unicode="." horiz-adv-x="630" d="M133 162q0 74 52.5 126t127.5 52q37 0 69 -14.5t55.5 -38t36.5 -56t13 -69.5t-13 -69t-36.5 -56.5t-55.5 -38.5t-69 -14q-76 0 -128 51t-52 127z" />
<glyph unicode="/" horiz-adv-x="1028" d="M53 -221l723 1691h242l-723 -1691h-242z" />
<glyph unicode="0" d="M72 668q0 135 24.5 259t82 218t152.5 150.5t234 56.5q137 0 231.5 -55.5t152 -148.5t82 -218t24.5 -262q0 -143 -22.5 -270.5t-78 -221.5t-151 -149.5t-238.5 -55.5t-238.5 54.5t-151.5 149.5t-79.5 221t-23.5 272zM369 668q0 -106 7 -194.5t28.5 -151t59.5 -97.5 t101 -35q59 0 97 36t59.5 99.5t29 150.5t7.5 192q0 94 -6.5 180t-26.5 150.5t-58.5 103.5t-101.5 39q-66 0 -103.5 -37t-59 -101.5t-27.5 -150.5t-6 -184z" />
<glyph unicode="1" d="M156 0v233h280v826h-231v190l526 101v-1117h293v-233h-868z" />
<glyph unicode="2" d="M133 172q119 125 222.5 239.5t179 214t119.5 184.5t44 153q0 63 -46 106t-150 43q-23 0 -48.5 -2t-59.5 -9t-78 -20.5t-105 -33.5l-74 198q98 47 197.5 76t216.5 29q96 0 178 -22.5t141.5 -69t92 -119t32.5 -170.5q0 -86 -37.5 -176.5t-100 -183.5t-144.5 -187t-168 -189 l2 -2h461v-231h-844z" />
<glyph unicode="3" d="M74 76q4 10 14 38.5t22.5 62.5t23.5 62.5t16 39.5q74 -29 151.5 -51.5t149.5 -22.5q43 0 88 8t79.5 30.5t57 60.5t22.5 97q0 43 -17 80t-60 64.5t-117 46t-187 26.5v203q20 20 61.5 58.5t85.5 80t85 79.5t61 57h-473v227h826v-227q-20 -20 -63.5 -59.5t-90.5 -81.5 t-90 -80.5t-64 -57.5q86 -8 152.5 -42t113 -86t70 -117.5t23.5 -137.5q0 -123 -40 -211t-110.5 -144t-165 -84t-204.5 -28q-41 0 -94.5 5t-110 17.5t-113.5 34t-102 52.5z" />
<glyph unicode="4" d="M63 264v205l580 864h293v-862h160v-207h-160v-264h-291v264h-582zM344 471h303v442h-6q-74 -111 -148.5 -220t-148.5 -222z" />
<glyph unicode="5" d="M100 78l80 205q84 -39 156 -54.5t135 -15.5q43 0 87 11.5t79 38t57.5 66.5t22.5 99q0 102 -60.5 153.5t-164.5 51.5q-88 0 -175 -35l-139 70l55 657h728v-227h-492l-23 -244q61 16 129 16q207 0 327 -112.5t120 -317.5q0 -127 -39 -215t-106.5 -144t-157.5 -82t-191 -26 q-268 0 -428 105z" />
<glyph unicode="6" horiz-adv-x="1122" d="M92 586q0 150 31 289t101.5 245.5t188 170t289.5 63.5q86 0 136.5 -9.5t93.5 -19.5l-31 -217q-41 8 -86 11t-80 3q-98 0 -163.5 -27.5t-105.5 -77.5t-59.5 -123t-27.5 -165q4 -4 6 -4q72 41 138.5 73.5t133.5 32.5q76 0 146.5 -26.5t125 -77.5t86.5 -127t32 -174 q0 -121 -36 -207t-100.5 -141t-151.5 -81t-188 -26q-129 0 -220 45t-148.5 127t-84 195t-26.5 248zM379 500q0 -61 11 -117.5t37 -99.5t64.5 -68t94.5 -25q39 0 72.5 18.5t58 51.5t39 75t14.5 91q0 37 -8 74t-29.5 66.5t-59.5 47t-98 17.5q-45 0 -94 -23.5t-102 -62.5v-45z " />
<glyph unicode="7" d="M131 1096v229h852v-211l-457 -1114h-305l453 1096h-543z" />
<glyph unicode="8" d="M76 354q0 117 67.5 202t169.5 132v4q-37 18 -71.5 45t-62 63t-44 81t-16.5 100q0 90 35.5 159.5t98 117t144.5 71t174 23.5q98 0 177 -24.5t134.5 -70t86 -108t30.5 -135.5q0 -55 -16 -102.5t-43 -84t-60.5 -66.5t-66.5 -50v-9q45 -18 90 -49.5t79 -73.5t55.5 -95.5 t21.5 -116.5q0 -92 -37 -165t-103.5 -124t-156.5 -78t-197 -27q-104 0 -193 22.5t-155.5 70t-103.5 119t-37 169.5zM371 369q0 -41 16 -74t43 -55.5t61.5 -36t71.5 -13.5q80 0 138.5 48.5t58.5 134.5q0 45 -20.5 78.5t-51.5 58.5t-67.5 43t-71.5 31q-33 -16 -64.5 -36 t-57.5 -46.5t-41 -59t-15 -73.5zM395 981q0 -37 15.5 -65.5t40 -50t56.5 -39t62 -31.5q31 18 59.5 37.5t50 42t35 51t13.5 63.5q0 72 -51 111t-117 39t-115 -43t-49 -115z" />
<glyph unicode="9" horiz-adv-x="1122" d="M74 899q0 121 35.5 207t99 141.5t150.5 81t190 25.5q129 0 219 -45t148.5 -127t85 -196t26.5 -249q0 -150 -31.5 -288t-103.5 -243.5t-190.5 -169t-290.5 -63.5q-84 0 -135.5 8.5t-92.5 18.5l29 217q41 -8 86 -11t80 -3q100 0 166.5 28.5t107.5 79.5t59.5 124t24.5 161 q-2 0 -6 4q-63 -39 -133 -72.5t-141 -33.5q-78 0 -146.5 26.5t-122 77.5t-84 127t-30.5 174zM346 899q0 -39 8 -76t30 -66.5t58.5 -47t96.5 -17.5q47 0 96 23.5t102 64.5v45q0 61 -11 117.5t-36.5 98.5t-64.5 68t-95 26q-41 0 -74.5 -19.5t-58 -51.5t-38 -75t-13.5 -90z" />
<glyph unicode=":" horiz-adv-x="630" d="M137 164q0 74 52.5 126t125.5 52q37 0 69 -14.5t55.5 -39t38 -56t14.5 -68.5t-14.5 -70t-38 -57.5t-55.5 -38.5t-69 -14q-74 0 -126 51t-52 129zM137 817q0 76 52.5 128t125.5 52q37 0 69 -14t55.5 -38.5t38 -57.5t14.5 -70t-14.5 -69.5t-38 -57t-55.5 -39t-69 -14.5 q-74 0 -126 52t-52 128z" />
<glyph unicode=";" horiz-adv-x="688" d="M139 -227l72 540h338l-219 -587zM197 817q0 76 52 128t126 52q37 0 68.5 -14t55 -38.5t38 -57.5t14.5 -70t-14.5 -69.5t-38 -57t-55 -39t-68.5 -14.5q-76 0 -127 52t-51 128z" />
<glyph unicode="&#x3c;" d="M76 430v186l901 408l74 -186q-180 -78 -356.5 -156t-356.5 -156q178 -84 355 -162.5t358 -160.5l-72 -185z" />
<glyph unicode="=" d="M80 217v201h969v-201h-969zM80 627v200h969v-200h-969z" />
<glyph unicode="&#x3e;" d="M76 838q18 47 37.5 93t38.5 93q225 -104 449 -204.5t452 -203.5v-186l-903 -412l-72 185l713 321q-178 82 -356.5 159t-358.5 155z" />
<glyph unicode="?" horiz-adv-x="964" d="M72 1333q78 41 171 70t210 29q92 0 167.5 -26t131 -74t86 -116.5t30.5 -156.5q0 -86 -22.5 -161t-87.5 -140q-66 -66 -106 -100.5t-62.5 -60.5t-29.5 -53.5t-7 -78.5v-41h-268v94q0 76 14 128t42 91t66.5 72t88.5 68q35 27 55 62.5t20 86.5q0 80 -39.5 116t-125.5 36 q-43 0 -115 -14.5t-137 -43.5q-23 53 -41.5 106.5t-40.5 106.5zM252 147q0 70 49 118t117 48t115 -48t47 -118q0 -68 -47.5 -115.5t-114.5 -47.5q-68 0 -117 47t-49 116z" />
<glyph unicode="@" horiz-adv-x="1949" d="M135 483q0 186 60.5 354.5t174 294t276.5 199.5t370 74q186 0 333.5 -59.5t251 -165t159 -251t55.5 -315.5q0 -268 -116 -417.5t-323 -149.5q-76 0 -143.5 34t-108.5 95l-80 -63q-37 -31 -75.5 -50.5t-75.5 -19.5q-88 0 -146.5 27.5t-94.5 69.5t-51 90.5t-15 91.5 q0 88 39 146t106.5 94t157.5 52.5t192 22.5v70q0 61 -37.5 88.5t-113.5 27.5q-59 0 -125 -11t-119 -26l-45 152q86 39 180 57.5t160 18.5q190 0 265 -73t75 -204v-360q0 -143 102 -144q61 0 99.5 39t57.5 97.5t25.5 125t6.5 119.5q0 135 -43 247t-123 193t-191.5 126 t-248.5 45t-258 -51.5t-212.5 -146.5t-143.5 -230t-52 -303q0 -143 45 -266.5t128 -212.5t203 -139t269 -50q92 0 188.5 18.5t188.5 71.5l78 -162q-123 -72 -238 -95.5t-231 -23.5q-188 0 -342 64.5t-263.5 178.5t-170 269.5t-60.5 335.5zM834 350q0 -53 19 -88t75 -35 q33 0 79 19.5t74 40.5v217q-33 -2 -75.5 -8.5t-80.5 -22.5t-64.5 -45t-26.5 -78z" />
<glyph unicode="A" horiz-adv-x="1187" d="M18 0l390 1401h362q16 -59 48 -169t70 -246t80 -285.5t79.5 -285.5t69.5 -247t48 -168h-321q-6 23 -16.5 67t-21.5 92t-21.5 92t-16.5 66h-354q-6 -23 -16.5 -66.5t-21.5 -91.5t-20.5 -92t-15.5 -67h-322zM467 557h248q-6 20 -15.5 60t-18.5 84t-18.5 84t-13.5 61 l-55 258h-12q-4 -16 -10.5 -53t-14.5 -77t-15 -77t-12 -53z" />
<glyph unicode="B" horiz-adv-x="1101" d="M92 0v1403h494q84 0 159.5 -22.5t133 -67.5t91.5 -114t34 -161q0 -90 -45.5 -168.5t-145.5 -117.5v-7q127 -39 180.5 -129t53.5 -206q0 -90 -31 -165t-85 -129.5t-128 -85t-162 -30.5h-549zM401 238h123q45 0 85 9t69 30.5t45 58.5t16 92q0 100 -62.5 145t-152.5 45h-123 v-380zM401 852h119q76 0 126 39t50 131q0 41 -15 67.5t-40 43t-54.5 22.5t-56.5 6h-129v-309z" />
<glyph unicode="C" horiz-adv-x="1044" d="M70 713q0 141 30.5 270t98 228.5t172 159t252.5 59.5q127 0 215 -28t157 -69l-80 -209q-59 25 -124.5 38.5t-126.5 13.5q-137 0 -197.5 -120t-60.5 -325q0 -242 59 -371t176 -129q66 0 129.5 15.5t157.5 54.5l84 -213q-90 -61 -196.5 -89t-235.5 -28q-145 0 -243.5 57.5 t-158 157t-84 234.5t-24.5 293z" />
<glyph unicode="D" horiz-adv-x="1153" d="M96 0v1403h383q111 0 219.5 -20.5t194.5 -91t139 -208t53 -370.5q0 -182 -29.5 -315.5t-100 -222.5t-186.5 -132t-288 -43h-385zM406 242h108q82 0 131 33.5t76 96t36 150.5t9 199q0 141 -18.5 227t-54.5 133t-87 63.5t-117 16.5h-83v-919z" />
<glyph unicode="E" horiz-adv-x="985" d="M92 0v1403h828v-250h-517v-299h455v-248h-455v-356h517v-250h-828z" />
<glyph unicode="F" horiz-adv-x="978" d="M90 0v1403h825v-250h-514v-299h453v-248h-453v-606h-311z" />
<glyph unicode="G" horiz-adv-x="1148" d="M70 715q0 141 34.5 270t107.5 228.5t181.5 159t255.5 59.5q125 0 216 -27t163 -68l-78 -213q-53 23 -124.5 38.5t-135.5 15.5q-141 0 -214 -121t-73 -326q0 -242 69 -372t194 -130q35 0 66.5 7.5t47.5 15.5v307l-110 23v192h409v-686q-61 -37 -124.5 -60.5t-123 -35.5 t-111.5 -16.5t-93 -4.5q-160 0 -266.5 56.5t-171 157t-92 236.5t-27.5 294z" />
<glyph unicode="H" horiz-adv-x="1196" d="M92 0v1403h309v-553h394v553h309v-1403h-309v606h-394v-606h-309z" />
<glyph unicode="I" horiz-adv-x="608" d="M150 0v1401h311v-1401h-311z" />
<glyph unicode="J" horiz-adv-x="878" d="M16 41q16 53 33 109.5t33 109.5q66 -16 110 -23.5t84 -7.5q49 0 80 13.5t48.5 41t23.5 71.5t6 108v704q-41 4 -82 10.5t-82 12.5v211h475v-869q0 -90 -5 -188t-44 -180t-124 -135.5t-244 -53.5q-78 0 -156 14.5t-156 51.5z" />
<glyph unicode="K" horiz-adv-x="1196" d="M94 0v1401h314v-596h8l407 596h355l-484 -668l488 -733h-377l-389 635l-8 -2v-633h-314z" />
<glyph unicode="L" horiz-adv-x="954" d="M96 0v1403h312v-1153h516v-250h-828z" />
<glyph unicode="M" horiz-adv-x="1497" d="M109 0v1399h348l190 -455l103 -235h6l104 235l189 455h346v-1399h-297v887h-13l-84 -197l-149 -364h-199l-153 374l-80 191h-12v-891h-299z" />
<glyph unicode="N" horiz-adv-x="1247" d="M96 0v1399h353l225 -481l119 -267q14 -31 27.5 -60.5t25.5 -60.5h12v869h299v-1399h-326l-247 500q-6 16 -23.5 53t-36 78t-36 76.5t-25.5 52.5q-16 33 -29.5 65.5t-30.5 67.5h-12v-893h-295z" />
<glyph unicode="O" horiz-adv-x="1202" d="M68 707q0 160 28.5 293t92 228t166 148.5t249.5 53.5t248.5 -52.5t165 -147.5t91.5 -228.5t28 -294.5q0 -158 -27 -293t-88 -233.5t-163.5 -154t-254.5 -55.5t-255 55.5t-165.5 154t-89 232.5t-26.5 294zM401 707q0 -111 7.5 -199t29 -150.5t61.5 -96.5t105 -34 q63 0 103.5 35t60.5 98.5t27.5 151.5t7.5 195q0 100 -6 186t-27.5 149.5t-60.5 98.5t-105 35q-68 0 -107.5 -35t-61 -97.5t-28 -148.5t-6.5 -188z" />
<glyph unicode="P" horiz-adv-x="1048" d="M92 0v1403h422q63 0 145 -10.5t155 -52.5t123 -124.5t50 -226.5q0 -137 -44 -223t-113.5 -134t-156.5 -65.5t-173 -17.5h-94v-549h-314zM406 788h69q43 0 80 7.5t62.5 29t41 58.5t15.5 98q0 57 -15.5 92t-40 54.5t-56.5 26.5t-64 7h-92v-373z" />
<glyph unicode="Q" horiz-adv-x="1202" d="M68 705q0 162 28.5 295t91 228t165 148.5t249.5 53.5t248.5 -52.5t165 -147.5t91.5 -229.5t28 -295.5q0 -135 -18.5 -253t-61.5 -211.5t-113 -157t-174 -89.5l127 -103l88 -217h-262l-119 299q-66 0 -117 13q-117 18 -196.5 78.5t-128.5 154.5t-70.5 218t-21.5 268z M399 705q0 -111 7.5 -199t29 -150.5t61.5 -96.5t105 -34q63 0 103 35t61.5 98.5t29 151.5t7.5 195q0 102 -7.5 188t-29 148.5t-60 97.5t-104.5 35t-105.5 -35t-61 -97.5t-29 -148.5t-7.5 -188z" />
<glyph unicode="R" horiz-adv-x="1073" d="M88 0v1401h420q76 0 160 -13.5t153.5 -56.5t114.5 -123t45 -211q0 -90 -20.5 -156.5t-57.5 -115.5t-87 -81t-109 -50l133 -105l202 -489h-311l-209 565h-125v-565h-309zM397 805h105q84 4 126 45t42 139q0 51 -15.5 85t-41 52.5t-58.5 25.5t-70 7h-88v-354z" />
<glyph unicode="S" horiz-adv-x="1077" d="M66 1030q0 111 42 187.5t110.5 124t158.5 68t186 20.5q41 0 89 -5.5t98.5 -16.5t97.5 -27.5t84 -37.5q-4 -10 -13.5 -40.5t-20.5 -66.5t-20.5 -66.5t-13.5 -41.5q-49 18 -99 29.5t-93 16t-75 5.5t-42 1q-31 0 -60.5 -7.5t-53 -22.5t-38 -43t-14.5 -67q0 -74 44 -107.5 t142 -64.5q117 -39 200 -77.5t135.5 -91t76 -124t23.5 -174.5q0 -115 -40 -196.5t-111 -133t-168 -75t-212 -23.5q-45 0 -98 5.5t-107.5 15.5t-105.5 26.5t-90 38.5l78 226q47 -18 95 -29.5t91 -19t76 -9.5t51 -2q109 0 162 38t53 134q0 45 -12.5 76t-37 51.5t-63.5 37 t-94 34.5q-96 33 -172 64.5t-129 78.5t-81.5 116t-28.5 175z" />
<glyph unicode="T" horiz-adv-x="974" d="M25 1153v250h925v-250h-311v-1153h-313v1153h-301z" />
<glyph unicode="U" horiz-adv-x="1191" d="M94 408v993h312v-965q0 -94 37.5 -152.5t136.5 -58.5q102 0 149 59.5t47 151.5v965h311v-993q0 -98 -32.5 -178t-97 -137.5t-160 -89.5t-219.5 -32q-125 0 -216.5 32t-150.5 88t-88 137t-29 180z" />
<glyph unicode="V" horiz-adv-x="1179" d="M25 1401h323l189 -846l53 -272h10l59 286l183 832h317l-379 -1401h-379z" />
<glyph unicode="W" horiz-adv-x="1722" d="M12 1399h332l117 -731l41 -334h10l63 368l121 697h346l129 -735l56 -324h12l35 305l106 754h336l-289 -1399h-385l-120 668l-50 313h-8l-49 -315l-119 -666h-389z" />
<glyph unicode="X" horiz-adv-x="1187" d="M29 0l387 723q-92 170 -182.5 338t-182.5 340h340q31 -68 62.5 -135.5t64.5 -132.5q18 -43 37.5 -90.5t40.5 -90.5h8q23 53 42.5 97.5t41.5 97.5q29 57 57.5 126.5t57.5 127.5h340l-367 -676l391 -725h-340q-33 68 -65.5 134.5t-65.5 135.5q-23 51 -46 102.5t-48 102.5 h-8q-23 -51 -45.5 -93t-44.5 -93q-35 -70 -70 -145.5t-65 -143.5h-340z" />
<glyph unicode="Y" horiz-adv-x="1165" d="M16 1401h326l158 -367l80 -205h10l80 205l155 367h324l-416 -858v-543h-309v539z" />
<glyph unicode="Z" horiz-adv-x="1026" d="M59 0v229l541 924h-494v250h844v-221l-547 -932h572v-250h-916z" />
<glyph unicode="[" horiz-adv-x="782" d="M244 -391v1841h463v-190h-213v-1459h213v-190z" />
<glyph unicode="\" horiz-adv-x="1028" d="M53 1470h242l723 -1691h-242z" />
<glyph unicode="]" horiz-adv-x="782" d="M203 -199h213v1459h-213v190h463v-1841l-463 2v190z" />
<glyph unicode="^" horiz-adv-x="1153" d="M43 510q16 37 51 109.5t78 162.5t90 188.5t90 188.5t77 163t52 110h189q16 -37 50 -110t77 -163t89 -188.5t89 -188.5t76.5 -162.5t52.5 -109.5h-225l-304 668l-311 -668h-221z" />
<glyph unicode="_" horiz-adv-x="1017" d="M-2 -139h1024v-172h-1024v172z" />
<glyph unicode="`" horiz-adv-x="976" d="M336 1446l231 102l166 -393l-147 -68z" />
<glyph unicode="a" horiz-adv-x="1003" d="M53 270q0 100 46 165t121 104t168 55t185 20v41q0 66 -33.5 97.5t-111.5 31.5q-59 0 -124.5 -10t-125.5 -26l-47 186q96 41 189.5 59.5t158.5 18.5q188 0 291.5 -78t103.5 -266v-465h91v-191q-63 -16 -126 -27.5t-108 -11.5q-59 0 -89 19.5t-40 66.5l-10 41l-107 -67 q-41 -25 -77 -43q-33 -17 -62 -17h-6q-98 0 -154.5 31t-86 77t-38 97t-8.5 92zM346 295q0 -51 18.5 -82t67.5 -31q31 0 73 19.5t70 40.5v204q-31 -2 -70.5 -8t-75.5 -22.5t-59.5 -45t-23.5 -75.5z" />
<glyph unicode="b" horiz-adv-x="1009" d="M82 0v1450h299v-551l4 -2q68 61 132.5 88t105.5 27q100 0 163.5 -47t100.5 -121t50 -166t13 -180q0 -90 -14 -182.5t-51 -168t-100.5 -124t-159.5 -48.5q-37 0 -73 16.5t-79 45.5l-96 67l-43 -104h-252zM383 250q29 -20 63.5 -37.5t63.5 -17.5q72 0 99.5 79.5t27.5 227.5 q0 55 -5 108.5t-18.5 95.5t-38 67.5t-61.5 25.5q-31 0 -65.5 -14.5t-65.5 -34.5v-500z" />
<glyph unicode="c" horiz-adv-x="872" d="M68 479q0 117 26.5 214.5t84 169t143.5 111.5t206 40q104 0 184.5 -21.5t137.5 -50.5l-51 -194q-47 16 -111.5 27t-120.5 11q-96 0 -141 -65.5t-45 -228.5q0 -68 8 -122.5t28.5 -92t55.5 -59t88 -21.5q59 0 117.5 11t130.5 34l53 -193q-78 -41 -153.5 -59.5t-180.5 -18.5 q-117 0 -203.5 38t-143 105.5t-85 161t-28.5 203.5z" />
<glyph unicode="d" horiz-adv-x="1009" d="M61 494q0 86 17.5 178t57.5 166.5t105.5 124t164.5 49.5q41 0 99 -19.5t124 -81.5q0 2 4 2v537h297v-1450h-252l-43 102l-96 -65q-39 -27 -75 -45.5t-71 -18.5q-98 0 -162.5 47.5t-102.5 122t-52.5 166.5t-14.5 185zM373 496q0 -147 30.5 -225t96.5 -78q29 0 64.5 17 t64.5 38v500q-31 20 -64 34.5t-63 14.5q-37 0 -61.5 -27t-40 -69t-21.5 -96t-6 -109z" />
<glyph unicode="e" horiz-adv-x="976" d="M70 485q0 43 5 99.5t20.5 115t45 114.5t78.5 100t120 72t169 28q152 0 235.5 -56.5t124.5 -143.5t49.5 -194.5t10.5 -207.5h-547q2 -47 11 -87t30.5 -69t58.5 -45t97 -16q45 0 106 7t154 40l55 -191q-84 -41 -171 -60.5t-179 -19.5q-145 0 -237.5 43t-144.5 115 t-71.5 165t-19.5 191zM377 565h258q0 47 -4 91t-18.5 77t-39 52.5t-65.5 19.5q-37 0 -60.5 -19.5t-39 -51.5t-22.5 -76t-9 -93z" />
<glyph unicode="f" horiz-adv-x="690" d="M16 793v153l134 41v119q0 57 14 119.5t54 116t107.5 88t176.5 34.5q47 0 109.5 -11t121.5 -38l-37 -194q-23 4 -52.5 6t-51.5 2q-70 0 -108 -29t-38 -100v-113h222v-194h-222v-793h-296v793h-134z" />
<glyph unicode="g" horiz-adv-x="1075" d="M39 -223q0 37 18.5 80t46.5 77l80 101l-102 39q-10 16 -14.5 39.5t-4.5 42.5q0 31 13.5 65.5t36 68.5t50 62.5t56.5 48.5q-57 37 -97 99.5t-40 161.5q0 88 37 154.5t96 110.5t137 65.5t162 21.5q59 0 107.5 -8.5t83.5 -18.5h344v-117l-146 -39q18 -35 30.5 -79.5 t12.5 -81.5q0 -84 -34.5 -147.5t-94 -105.5t-139.5 -63.5t-170 -21.5q-35 0 -66.5 3t-60.5 7q-43 -39 -43 -72q0 -45 57 -45h275q168 0 266 -72.5t98 -213.5q0 -86 -45 -158t-125 -122t-189.5 -79t-236.5 -29q-121 0 -198.5 19.5t-121.5 51.5t-61.5 72t-17.5 83zM291 -121 q0 -53 60.5 -75.5t142.5 -22.5q53 0 100 10t82 28.5t55.5 44t20.5 56.5q0 41 -37 55.5t-84 14.5h-273q-29 -31 -48 -58.5t-19 -52.5zM383 670q0 -31 6 -60.5t20.5 -53.5t40 -38t64.5 -14q74 0 102.5 50t28.5 116q0 29 -6 57.5t-21.5 52t-41 37.5t-64.5 14q-41 0 -66.5 -16 t-40 -40.5t-18.5 -52.5t-4 -52z" />
<glyph unicode="h" horiz-adv-x="1003" d="M86 0v1450h295v-567l113 73q33 23 69.5 38.5t65.5 15.5q100 0 158.5 -37t87 -91.5t37 -115.5t8.5 -109v-657h-295v659q0 57 -17.5 94.5t-81.5 37.5q-35 0 -74.5 -18.5t-68.5 -37.5v-735h-297z" />
<glyph unicode="i" horiz-adv-x="598" d="M66 823v166h409v-989h-299v797zM152 1305q0 70 47 120t116 50q70 0 117 -51.5t47 -118.5q0 -68 -47 -117t-117 -49t-116.5 47t-46.5 119z" />
<glyph unicode="j" horiz-adv-x="575" d="M-12 -289q63 45 100 91t55.5 91.5t23.5 86t5 75.5v742l-111 26v166h414v-854q0 -72 -10 -148.5t-48 -153.5t-115 -150.5t-212 -139.5zM150 1305q0 70 48 120t117 50q70 0 117 -51.5t47 -118.5q0 -68 -47 -117t-117 -49t-117.5 47t-47.5 119z" />
<glyph unicode="k" horiz-adv-x="1026" d="M92 0v1452h297v-887h4l287 420h332q-88 -115 -173 -227.5t-173 -227.5q88 -135 177 -266t177 -264h-340l-287 485h-4v-485h-297z" />
<glyph unicode="l" horiz-adv-x="552" d="M35 1286v164h405v-1450h-297v1260z" />
<glyph unicode="m" horiz-adv-x="1513" d="M84 0v987h250l45 -102l98 65q31 20 72 41t76 21q55 0 95 -12.5t69.5 -33t49 -47t33.5 -55.5l121 86q35 25 76 43.5t76 18.5q94 0 150.5 -35t85 -88t36.5 -115.5t8 -118.5v-655h-299v676q0 55 -18 89t-72 34q-31 0 -67.5 -18.5t-65.5 -37.5v-743h-299v676q0 55 -15.5 89 t-70.5 34q-31 0 -67.5 -17.5t-67.5 -38.5v-743h-299z" />
<glyph unicode="n" horiz-adv-x="1007" d="M86 0v985h248l47 -102l113 73q33 23 69.5 38.5t65.5 15.5q100 0 158.5 -37t88 -91.5t38 -115.5t8.5 -109v-657h-297v639q0 18 -2 44t-11.5 49.5t-29 41t-56.5 17.5q-35 0 -73.5 -19.5t-67.5 -38.5v-733h-299z" />
<glyph unicode="o" horiz-adv-x="1017" d="M66 487q0 94 20 188.5t71.5 169.5t137.5 121t215 46q127 0 212 -43t135 -115t71.5 -165t21.5 -193q0 -98 -20.5 -192.5t-71.5 -168.5t-138 -119t-218 -45q-125 0 -209 43t-134 114t-71.5 164t-21.5 195zM375 508q0 -158 25.5 -241t109.5 -83q80 0 105.5 80t25.5 240 q0 68 -5 123t-19.5 95t-40 61.5t-66.5 21.5q-43 0 -69.5 -21.5t-41 -60.5t-19.5 -94.5t-5 -120.5z" />
<glyph unicode="p" horiz-adv-x="1009" d="M86 -410v1397h252l45 -106l94 65q39 25 76 44.5t80 19.5q96 0 158.5 -48.5t98.5 -124t50 -169t14 -183.5q0 -86 -17 -177t-57 -165.5t-104.5 -122t-161.5 -47.5q-37 0 -97 17.5t-128 81.5l-4 -2v-480h-299zM389 238q31 -20 65.5 -35t65.5 -15q37 0 61.5 26t38 67t18.5 95 t5 109q0 145 -28.5 225.5t-98.5 80.5q-29 0 -63.5 -17.5t-63.5 -40.5v-495z" />
<glyph unicode="q" horiz-adv-x="1003" d="M61 485q0 88 15.5 182.5t52.5 171t99.5 126t158.5 49.5q37 0 73 -18.5t79 -47.5l94 -65q2 6 8 21.5t13.5 32.5t13.5 31.5t10 20.5h250v-1399h-299v498l-4 2q-66 -61 -131.5 -88t-106.5 -27q-100 0 -163.5 47.5t-99.5 121t-49.5 163.5t-13.5 178zM373 483 q0 -129 28.5 -211t94.5 -82q31 0 65.5 14.5t65.5 35.5v497q-29 20 -64 38t-63 18q-66 0 -96.5 -81t-30.5 -229z" />
<glyph unicode="r" horiz-adv-x="759" d="M111 0v987h243l43 -168q70 86 154 135.5t170 63.5l43 -291q-115 -6 -200 -17.5t-156 -29.5v-680h-297z" />
<glyph unicode="s" horiz-adv-x="845" d="M41 43l55 195q31 -10 70 -19.5t77 -16.5t72.5 -11.5t59.5 -4.5q66 0 100.5 22t34.5 77t-34 77.5t-93 36.5q-82 16 -143.5 38t-103.5 55.5t-63.5 85t-21.5 124.5q0 86 34 145.5t89 96.5t125 53.5t143 16.5q82 0 169 -17.5t155 -52.5l-51 -188q-29 8 -63 15t-67.5 12 t-64.5 7.5t-51 2.5q-123 0 -123 -84q0 -41 31 -55.5t84 -26.5q74 -16 138.5 -37t112.5 -56.5t75.5 -93t27.5 -147.5t-37 -150.5t-98.5 -99.5t-140 -55.5t-162.5 -16.5q-74 0 -168 17.5t-168 54.5z" />
<glyph unicode="t" horiz-adv-x="772" d="M20 791v151l158 43l101 268h186v-268h244v-194h-244v-455q0 -86 32.5 -112.5t100.5 -26.5q27 0 64.5 4t78.5 10q8 -47 15.5 -95t17.5 -96q-33 -12 -71.5 -21t-77.5 -15.5t-73 -9.5t-54 -3q-111 0 -177.5 31t-100.5 80t-44 110.5t-10 124.5v474h-146z" />
<glyph unicode="u" horiz-adv-x="1005" d="M86 326v661h299v-663q0 -55 17.5 -93t80.5 -38q35 0 74 19t68 38v737h299v-987h-250l-45 100l-115 -71q-33 -23 -69.5 -39.5t-65.5 -16.5q-100 0 -158.5 37t-88.5 91.5t-38 116t-8 108.5z" />
<glyph unicode="v" horiz-adv-x="1024" d="M4 987h301l144 -463l75 -266h6l64 264l123 465h297l-326 -987h-334z" />
<glyph unicode="w" horiz-adv-x="1409" d="M10 987h285l59 -282l70 -338h8l86 342l72 278h217l84 -299l82 -311h10l59 313l60 297h289q-10 -41 -31 -118.5t-44.5 -174t-51 -201t-51 -200.5t-44 -174t-30.5 -119h-283l-72 258l-82 305h-10l-76 -287l-75 -276h-283q-10 41 -29.5 119t-43 174t-50 200.5t-51.5 201 t-44.5 174t-29.5 118.5z" />
<glyph unicode="x" horiz-adv-x="995" d="M0 0l338 504l-293 481h315l152 -297h6q37 76 74 149.5t76 147.5h321l-307 -469q78 -129 155.5 -258t155.5 -258h-317q-18 39 -40 81t-42 81q-20 43 -42 82t-42 82h-8q-23 -43 -42.5 -75t-41.5 -75q-23 -39 -49.5 -88t-49.5 -88h-319z" />
<glyph unicode="y" horiz-adv-x="1036" d="M25 987h309l112 -424l68 -262h8l80 279l127 407h297l-477 -1397h-281l142 453l-99 104z" />
<glyph unicode="z" horiz-adv-x="907" d="M45 0v168l440 577l-2 11h-399v231h778v-174l-436 -571l4 -11h432v-231h-817z" />
<glyph unicode="{" horiz-adv-x="845" d="M119 424v166q88 0 130 39t42 162v387q0 98 34.5 155.5t92 87t128 38.5t142.5 9h60v-188h-70q-45 0 -71.5 -12.5t-42 -33t-20.5 -47t-5 -54.5v-377q0 -68 -17.5 -108t-43 -64.5t-54.5 -42t-51 -39.5q33 -10 63.5 -26.5t53 -47.5t36 -80t13.5 -123v-299q0 -31 5 -58.5 t20.5 -47t44 -31.5t73.5 -12h66v-189h-142q-61 0 -118.5 16.5t-101.5 51.5t-69.5 90t-25.5 135v340q0 63 -11.5 103.5t-33 62t-53 29.5t-74.5 8z" />
<glyph unicode="|" horiz-adv-x="655" d="M207 -512v2046h242v-2046h-242z" />
<glyph unicode="}" horiz-adv-x="845" d="M115 -223h65q47 0 75 12t43 32.5t19.5 47.5t4.5 57v299q0 74 13 123t36.5 80t53.5 47.5t64 26.5q-33 12 -63.5 30.5t-53 47t-36.5 71.5t-14 105v377q0 29 -5.5 55t-19.5 46.5t-41 33t-72 12.5h-69v188h57q70 0 141.5 -8t128 -38.5t92 -88t35.5 -155.5v-424 q0 -98 47.5 -131t124.5 -33v-166q-41 0 -72.5 -8t-53 -29.5t-34 -61.5t-12.5 -104v-340q0 -80 -25.5 -135t-68.5 -90t-100.5 -51.5t-120.5 -16.5h-139v189z" />
<glyph unicode="~" d="M43 487q20 35 53 71t74 65.5t87 49t95 19.5q57 0 110.5 -19.5t102.5 -42t96.5 -42t96.5 -19.5q59 0 95 28t85 85l149 -131q-25 -39 -60.5 -77t-78.5 -68.5t-89 -49t-91 -18.5q-59 0 -111.5 20.5t-102.5 44t-98 44t-98 20.5q-41 0 -87 -28.5t-87 -82.5z" />
<glyph unicode="&#xa1;" horiz-adv-x="724" d="M195 842q0 70 47.5 119t115.5 49t116 -49.5t48 -118.5q0 -70 -48 -118t-116 -48t-115.5 48t-47.5 118zM205 -408l41 969h217l43 -969h-301z" />
<glyph unicode="&#xa2;" d="M168 479q0 113 25.5 208t79 167t135 114t194.5 46v221h119v-227q72 -8 128 -25.5t101 -40.5l-51 -194q-47 16 -111.5 27t-119.5 11q-96 0 -141.5 -65.5t-45.5 -228.5q0 -68 8.5 -122.5t29 -92t55.5 -59t88 -21.5q59 0 117.5 11t129.5 34l54 -193q-59 -31 -117 -48 t-125 -26v-262h-119v258q-111 4 -192.5 44t-135 106.5t-80 158t-26.5 199.5z" />
<glyph unicode="&#xa3;" d="M106 0v225h130q39 90 38 203q0 29 -2 57.5t-8 61.5h-155v194h118q-12 47 -21 100.5t-9 102.5q0 90 31.5 164t91 127t143.5 82t186 29q111 0 201 -25t158 -59l-76 -201q-66 20 -140.5 33.5t-127.5 13.5q-88 0 -136.5 -50t-48.5 -128q0 -51 12.5 -95t24.5 -94h336v-194 h-299q4 -29 6 -56.5t2 -56.5q-4 -123 -41 -209h504v-225h-918z" />
<glyph unicode="&#xa5;" d="M-2 1350h326q10 -25 30.5 -73t42 -100.5t41 -100.5t29.5 -72q6 -14 19.5 -49t27.5 -75t27.5 -76t19.5 -50h10q6 14 19.5 50t28 76t27.5 75.5t20 50.5q10 23 29.5 70.5t41 100t41 100.5t29.5 73h323q-18 -39 -56 -121t-81 -172t-82 -172t-57 -121h186v-137h-960v137h186 q-18 39 -55 121t-79 172t-79 172t-55 121zM80 412v137h960v-137h-325v-412h-312v412h-323z" />
<glyph unicode="&#xa7;" horiz-adv-x="1220" d="M141 623q0 92 49.5 158.5t124.5 113.5q-137 66 -137 207q0 96 44 158.5t115 99.5t160 51t177 14q72 0 170 -17t180 -56l-61 -203q-39 12 -81 20.5t-82 14.5t-74 8t-56 2q-70 0 -120 -23.5t-50 -76.5t71.5 -83t178.5 -61q72 -20 133 -49t105 -68.5t68.5 -90t24.5 -113.5 q0 -90 -37.5 -168t-113.5 -123q55 -33 86 -84t31 -123q0 -86 -43 -150.5t-111 -107.5t-152 -63.5t-168 -20.5q-102 0 -201.5 22.5t-176.5 59.5l59 201q104 -31 174 -39t117 -8q98 0 138 28.5t40 71.5q0 49 -67.5 86t-200.5 74q-63 16 -119.5 41.5t-99.5 65.5t-69 96.5 t-26 134.5zM438 651q0 -43 23.5 -72.5t61.5 -50t87 -34t101 -25.5q35 23 57.5 53.5t22.5 75.5q0 39 -18.5 64.5t-53.5 45t-83.5 36t-107.5 34.5q-37 -20 -63.5 -51t-26.5 -76z" />
<glyph unicode="&#xa8;" horiz-adv-x="993" d="M164 1266q0 59 40 100t99 41t99 -41t40 -100t-40 -100.5t-99 -41.5t-99 41t-40 101zM575 1266q0 59 40 100t98 41q59 0 98 -41t39 -100t-39 -100.5t-98 -41.5q-57 0 -97.5 41t-40.5 101z" />
<glyph unicode="&#xa9;" horiz-adv-x="1691" d="M100 725q0 162 57.5 299t158 237.5t236.5 156t294 55.5t294 -55.5t235.5 -155t155.5 -236.5t56 -301t-57 -301t-157.5 -237.5t-235.5 -157t-291 -56.5q-178 0 -317.5 57.5t-234.5 158t-144.5 237.5t-49.5 299zM266 725q0 -127 41 -239.5t116 -195.5t182.5 -131t240.5 -48 q125 0 231.5 48t182 131t118.5 195.5t43 239.5q0 125 -44 236.5t-120.5 193.5t-182 130t-228.5 48q-127 0 -232.5 -48t-183.5 -130t-121 -193.5t-43 -236.5zM500 717q0 92 20.5 177t64.5 149.5t111.5 103.5t163.5 39q84 0 144.5 -18.5t105.5 -45.5l-55 -139q-35 16 -80 26.5 t-92 10.5q-180 0 -181 -291q0 -180 44.5 -254t121.5 -74q43 0 88 11.5t111 36.5l55 -140q-53 -35 -127.5 -56.5t-160.5 -21.5q-92 0 -157 37t-103.5 102.5t-56 154.5t-17.5 192z" />
<glyph unicode="&#xaa;" horiz-adv-x="692" d="M29 692q0 68 30.5 110t80.5 66.5t113.5 34.5t127.5 15v20q0 72 -86 72q-41 0 -92 -10.5t-99 -22.5l-38 139q76 35 146.5 48.5t117.5 13.5q63 0 114.5 -11.5t88 -36t57 -65.5t20.5 -102v-320q0 -14 9.5 -23.5t44.5 -13.5v-94q-23 -8 -58 -15.5t-63 -7.5q-43 0 -71 4.5 t-50 12.5l-29 63l-51 -41q-23 -18 -53.5 -29.5t-50.5 -11.5q-72 0 -113 21.5t-62.5 53.5t-27.5 67t-6 63zM250 713q0 -29 10 -49.5t37 -20.5q16 0 43 12.5t43 22.5v117q-20 -2 -44 -6.5t-43.5 -13.5t-32.5 -24.5t-13 -37.5z" />
<glyph unicode="&#xab;" horiz-adv-x="1157" d="M63 442v76l402 455l151 -99l-260 -395l260 -381l-153 -104zM530 442v76l402 455l153 -99l-262 -395l260 -381l-153 -104z" />
<glyph unicode="&#xac;" d="M80 430v209h969v-588h-209v379h-760z" />
<glyph unicode="&#xad;" horiz-adv-x="747" d="M92 422v215h563v-215h-563z" />
<glyph unicode="&#xae;" horiz-adv-x="1138" d="M78 952q0 104 37 193.5t102.5 156t155.5 103.5t198 37q109 0 199 -37t154.5 -102.5t100.5 -155.5t36 -195q0 -104 -38 -194t-104.5 -156.5t-156 -103.5t-191.5 -37q-117 0 -208 38t-154.5 103.5t-97 155.5t-33.5 194zM190 952q0 -82 25 -153.5t73 -126t118.5 -85 t164.5 -30.5q84 0 154 30.5t120 85t77.5 126t27.5 153.5q0 80 -27.5 152t-78.5 126t-121 85t-152 31q-86 0 -156.5 -31t-120.5 -85t-77 -126t-27 -152zM389 662v577h180q33 0 68 -6t63.5 -24.5t47 -52.5t18.5 -87q0 -72 -33 -113t-82 -59l56 -43l84 -192h-132l-88 225h-53 v-225h-129zM518 989h35q39 0 59.5 16.5t20.5 61.5q0 41 -22.5 56.5t-51.5 15.5h-41v-150z" />
<glyph unicode="&#xb0;" horiz-adv-x="970" d="M152 1090q0 70 26.5 130t72.5 105t106.5 70.5t129.5 25.5q70 0 130.5 -25.5t104.5 -70.5t69.5 -105.5t25.5 -129.5q0 -68 -26.5 -128.5t-71.5 -105.5t-104.5 -70.5t-127.5 -25.5q-72 0 -133 25.5t-106 70.5t-70.5 105.5t-25.5 128.5zM313 1090q0 -72 50.5 -121t119.5 -49 q37 0 69 13t55.5 35.5t36.5 54.5t13 67t-13 66.5t-36.5 55t-55.5 37t-69 13.5q-35 0 -65.5 -13.5t-54 -37t-37 -54.5t-13.5 -67z" />
<glyph unicode="&#xb1;" d="M82 6v209h967v-209h-967zM82 641v207h377v352h211v-352h379v-207h-379v-352h-211v352h-377z" />
<glyph unicode="&#xb4;" horiz-adv-x="815" d="M276 1155l166 393l232 -102l-250 -359z" />
<glyph unicode="&#xb6;" horiz-adv-x="960" d="M27 1024q0 80 26.5 150.5t72.5 123t107.5 83t133.5 30.5h557v-145h-76v-1528h-166v1528h-119v-1528h-170v903h-26q-72 0 -133.5 29.5t-107.5 82t-72.5 122t-26.5 149.5z" />
<glyph unicode="&#xb7;" horiz-adv-x="630" d="M133 522q0 78 53.5 131.5t130.5 53.5q37 0 70 -14.5t57.5 -40t39 -59.5t14.5 -71t-14.5 -70.5t-39 -59t-57.5 -40t-70 -14.5q-78 0 -131 53t-53 131z" />
<glyph unicode="&#xb8;" horiz-adv-x="727" d="M162 -403l37 102q37 -14 73.5 -20.5t65.5 -6.5q39 0 65.5 17.5t26.5 52.5q0 27 -20.5 39t-47.5 12q-16 0 -29.5 -4t-31.5 -16l-74 55l103 225l121 -30l-64 -127q57 -4 94 -19.5t58.5 -39t30 -50.5t8.5 -51q0 -72 -54.5 -127t-163.5 -58q-47 0 -99 10.5t-99 35.5z" />
<glyph unicode="&#xba;" horiz-adv-x="702" d="M39 829q0 63 14.5 126t50 112t96 80t152.5 31q88 0 147.5 -29t96.5 -76t52.5 -108.5t15.5 -128.5q0 -66 -14.5 -128.5t-50.5 -111.5t-97.5 -79t-153.5 -30q-90 0 -149.5 28t-94 76t-50 109.5t-15.5 128.5zM270 842q0 -96 16.5 -144.5t65.5 -48.5q47 0 61.5 47t14.5 144 q0 82 -14.5 131t-61.5 49q-51 0 -66.5 -48t-15.5 -130z" />
<glyph unicode="&#xbb;" horiz-adv-x="1157" d="M68 874l153 99l402 -455v-76l-400 -448l-153 104l258 381zM535 874l153 99l402 -455v-76l-400 -448l-153 104l260 381z" />
<glyph unicode="&#xbf;" horiz-adv-x="964" d="M74 -68q0 84 21.5 160t88.5 139q61 57 101.5 92t64 63t31.5 56.5t8 71.5v49h270v-92q0 -76 -14 -128t-42 -92t-66.5 -73t-87.5 -67q-78 -55 -78 -150q0 -78 42 -112.5t126 -34.5q41 0 113.5 13t138.5 42l79 -213q-76 -41 -170 -68.5t-211 -27.5q-92 0 -167.5 25.5 t-131 72.5t-86 116.5t-30.5 157.5zM362 840q0 70 47.5 118t114.5 48q68 0 117 -47.5t49 -118.5q0 -68 -49 -116t-117 -48t-115 48t-47 116z" />
<glyph unicode="&#xc0;" horiz-adv-x="1187" d="M18 0l390 1401h362q16 -59 48 -169t70 -246t80 -285.5t79.5 -285.5t69.5 -247t48 -168h-321q-6 23 -16.5 67t-21.5 92t-21.5 92t-16.5 66h-354q-6 -23 -16.5 -66.5t-21.5 -91.5t-20.5 -92t-15.5 -67h-322zM217 1632l154 201l334 -264l-95 -131zM467 557h248 q-6 20 -15.5 60t-18.5 84t-18.5 84t-13.5 61l-55 258h-12q-4 -16 -10.5 -53t-14.5 -77t-15 -77t-12 -53z" />
<glyph unicode="&#xc1;" horiz-adv-x="1187" d="M18 0l390 1401h362q16 -59 48 -169t70 -246t80 -285.5t79.5 -285.5t69.5 -247t48 -168h-321q-6 23 -16.5 67t-21.5 92t-21.5 92t-16.5 66h-354q-6 -23 -16.5 -66.5t-21.5 -91.5t-20.5 -92t-15.5 -67h-322zM467 557h248q-6 20 -15.5 60t-18.5 84t-18.5 84t-13.5 61 l-55 258h-12q-4 -16 -10.5 -53t-14.5 -77t-15 -77t-12 -53zM502 1569l336 264l151 -201l-391 -194z" />
<glyph unicode="&#xc2;" horiz-adv-x="1187" d="M18 0l390 1401h362q16 -59 48 -169t70 -246t80 -285.5t79.5 -285.5t69.5 -247t48 -168h-321q-6 23 -16.5 67t-21.5 92t-21.5 92t-16.5 66h-354q-6 -23 -16.5 -66.5t-21.5 -91.5t-20.5 -92t-15.5 -67h-322zM203 1544l342 289h82l344 -289l-101 -106l-286 168l-281 -168z M467 557h248q-6 20 -15.5 60t-18.5 84t-18.5 84t-13.5 61l-55 258h-12q-4 -16 -10.5 -53t-14.5 -77t-15 -77t-12 -53z" />
<glyph unicode="&#xc3;" horiz-adv-x="1187" d="M18 0l390 1401h362q16 -59 48 -169t70 -246t80 -285.5t79.5 -285.5t69.5 -247t48 -168h-321q-6 23 -16.5 67t-21.5 92t-21.5 92t-16.5 66h-354q-6 -23 -16.5 -66.5t-21.5 -91.5t-20.5 -92t-15.5 -67h-322zM221 1565q8 20 26.5 53t47.5 64.5t67.5 54t92.5 22.5 q41 0 74.5 -11t64.5 -25.5t58.5 -25.5t56.5 -11q43 0 71.5 18t50.5 49l125 -78q-12 -23 -31.5 -53.5t-48 -58t-66.5 -47t-85 -19.5q-43 0 -78 10.5t-65.5 23.5t-60 23.5t-60.5 10.5q-37 0 -65.5 -20.5t-55.5 -49.5zM467 557h248q-6 20 -15.5 60t-18.5 84t-18.5 84t-13.5 61 l-55 258h-12q-4 -16 -10.5 -53t-14.5 -77t-15 -77t-12 -53z" />
<glyph unicode="&#xc4;" horiz-adv-x="1187" d="M18 0l390 1401h362q16 -59 48 -169t70 -246t80 -285.5t79.5 -285.5t69.5 -247t48 -168h-321q-6 23 -16.5 67t-21.5 92t-21.5 92t-16.5 66h-354q-6 -23 -16.5 -66.5t-21.5 -91.5t-20.5 -92t-15.5 -67h-322zM240 1632q0 59 39.5 100.5t99.5 41.5q59 0 99 -41t40 -101 q0 -59 -40 -100t-99 -41t-99 41t-40 100zM467 557h248q-6 20 -15.5 60t-18.5 84t-18.5 84t-13.5 61l-55 258h-12q-4 -16 -10.5 -53t-14.5 -77t-15 -77t-12 -53zM651 1632q0 59 40 100.5t97 41.5q59 0 98.5 -41t39.5 -101q0 -59 -39.5 -100t-98.5 -41q-57 0 -97 41t-40 100z " />
<glyph unicode="&#xc5;" horiz-adv-x="1187" d="M18 0l390 1401h362q16 -59 48 -169t70 -246t80 -285.5t79.5 -285.5t69.5 -247t48 -168h-321q-6 23 -16.5 67t-21.5 92t-21.5 92t-16.5 66h-354q-6 -23 -16.5 -66.5t-21.5 -91.5t-20.5 -92t-15.5 -67h-322zM358 1655q0 45 17.5 86t48.5 72.5t73 50t91 18.5t91 -18.5 t72.5 -49t48 -72.5t17.5 -87q0 -47 -18.5 -89t-49 -73t-72.5 -48.5t-89 -17.5q-49 0 -91 18.5t-73 49.5t-48.5 72t-17.5 88zM467 557h248q-6 20 -15.5 60t-18.5 84t-18.5 84t-13.5 61l-55 258h-12q-4 -16 -10.5 -53t-14.5 -77t-15 -77t-12 -53zM504 1655q0 -37 24.5 -63.5 t59.5 -26.5t60.5 27.5t25.5 62.5t-25.5 61.5t-60.5 26.5t-59.5 -26.5t-24.5 -61.5z" />
<glyph unicode="&#xc6;" horiz-adv-x="1712" d="M-8 0l600 1401h1036v-248h-516v-299h455v-248h-455v-356h516v-250h-825v334h-354l-144 -334h-313zM545 575h258v576h-12z" />
<glyph unicode="&#xc7;" horiz-adv-x="1044" d="M70 713q0 141 30.5 270t98 228.5t172 159t252.5 59.5q127 0 215 -28t157 -69l-80 -209q-59 25 -124.5 38.5t-126.5 13.5q-137 0 -197.5 -120t-60.5 -325q0 -242 59 -371t176 -129q66 0 129.5 15.5t157.5 54.5l84 -213q-80 -55 -173.5 -83t-203.5 -32l-39 -77 q57 -4 94 -19.5t58.5 -39t29.5 -50.5t8 -51q0 -72 -54 -127t-163 -58q-47 0 -99 10.5t-99 35.5l37 102q37 -14 73.5 -20.5t65.5 -6.5q39 0 65.5 17.5t26.5 52.5q0 27 -20.5 39t-47.5 12q-16 0 -29.5 -4t-31.5 -16l-74 55l68 149q-123 14 -207 76t-134 159t-71.5 225 t-21.5 276z" />
<glyph unicode="&#xc8;" horiz-adv-x="985" d="M92 0v1403h828v-250h-517v-299h455v-248h-455v-356h517v-250h-828zM193 1632l153 201l334 -264l-94 -131z" />
<glyph unicode="&#xc9;" horiz-adv-x="985" d="M92 0v1403h828v-250h-517v-299h455v-248h-455v-356h517v-250h-828zM328 1569l336 264l151 -201l-391 -194z" />
<glyph unicode="&#xca;" horiz-adv-x="985" d="M92 0v1403h828v-250h-517v-299h455v-248h-455v-356h517v-250h-828zM119 1544l342 289h82l344 -289l-101 -106l-286 168l-281 -168z" />
<glyph unicode="&#xcb;" horiz-adv-x="985" d="M92 0v1403h828v-250h-517v-299h455v-248h-455v-356h517v-250h-828zM168 1632q0 59 40 100.5t99 41.5t99 -41t40 -101q0 -59 -40 -100t-99 -41t-99 41t-40 100zM580 1632q0 59 39.5 100.5t97.5 41.5q59 0 98 -41t39 -101q0 -59 -39 -100t-98 -41q-57 0 -97 41t-40 100z " />
<glyph unicode="&#xcc;" horiz-adv-x="608" d="M-80 1632l154 201l334 -264l-95 -131zM150 0v1401h311v-1401h-311z" />
<glyph unicode="&#xcd;" horiz-adv-x="608" d="M150 0v1401h311v-1401h-311zM207 1569l336 264l151 -201l-391 -194z" />
<glyph unicode="&#xce;" horiz-adv-x="608" d="M-74 1544l342 289h82l344 -289l-100 -106l-287 168l-280 -168zM150 0v1401h311v-1401h-311z" />
<glyph unicode="&#xcf;" horiz-adv-x="608" d="M-39 1632q0 59 40 100.5t99 41.5t99.5 -41t40.5 -101q0 -59 -40.5 -100t-99.5 -41t-99 41t-40 100zM150 0v1401h311v-1401h-311zM373 1632q0 59 40 100.5t97 41.5q59 0 98 -41t39 -101q0 -59 -39 -100t-98 -41q-57 0 -97 41t-40 100z" />
<glyph unicode="&#xd0;" horiz-adv-x="1153" d="M4 606v199h92v598h383q111 0 219.5 -20.5t194.5 -91t139 -208t53 -370.5q0 -182 -29.5 -315.5t-100 -222.5t-186.5 -132t-288 -43h-385v606h-92zM406 242h108q82 0 131 33.5t76 96t36 150.5t9 199q0 141 -18.5 227t-54.5 133t-87 63.5t-117 16.5h-83v-356h157v-199h-157 v-364z" />
<glyph unicode="&#xd1;" horiz-adv-x="1247" d="M96 0v1399h353l225 -481l119 -267q14 -31 27.5 -60.5t25.5 -60.5h12v869h299v-1399h-326l-247 500q-6 16 -23.5 53t-36 78t-36 76.5t-25.5 52.5q-16 33 -29.5 65.5t-30.5 67.5h-12v-893h-295zM264 1565q8 20 26.5 53t47.5 64.5t67.5 54t92.5 22.5q41 0 74.5 -11 t64.5 -25.5t58.5 -25.5t56.5 -11q43 0 71.5 18t50.5 49l125 -78q-12 -23 -31.5 -53.5t-48 -58t-66.5 -47t-85 -19.5q-43 0 -78 10.5t-65.5 23.5t-60 23.5t-60.5 10.5q-37 0 -65.5 -20.5t-55.5 -49.5z" />
<glyph unicode="&#xd2;" horiz-adv-x="1202" d="M68 707q0 160 28.5 293t92 228t166 148.5t249.5 53.5t248.5 -52.5t165 -147.5t91.5 -228.5t28 -294.5q0 -158 -27 -293t-88 -233.5t-163.5 -154t-254.5 -55.5t-255 55.5t-165.5 154t-89 232.5t-26.5 294zM254 1655l154 200l333 -264l-94 -131zM401 707q0 -111 7.5 -199 t29 -150.5t61.5 -96.5t105 -34q63 0 103.5 35t60.5 98.5t27.5 151.5t7.5 195q0 100 -6 186t-27.5 149.5t-60.5 98.5t-105 35q-68 0 -107.5 -35t-61 -97.5t-28 -148.5t-6.5 -188z" />
<glyph unicode="&#xd3;" horiz-adv-x="1202" d="M68 707q0 160 28.5 293t92 228t166 148.5t249.5 53.5t248.5 -52.5t165 -147.5t91.5 -228.5t28 -294.5q0 -158 -27 -293t-88 -233.5t-163.5 -154t-254.5 -55.5t-255 55.5t-165.5 154t-89 232.5t-26.5 294zM401 707q0 -111 7.5 -199t29 -150.5t61.5 -96.5t105 -34 q63 0 103.5 35t60.5 98.5t27.5 151.5t7.5 195q0 100 -6 186t-27.5 149.5t-60.5 98.5t-105 35q-68 0 -107.5 -35t-61 -97.5t-28 -148.5t-6.5 -188zM442 1591l336 264l152 -200l-391 -195z" />
<glyph unicode="&#xd4;" horiz-adv-x="1202" d="M68 707q0 160 28.5 293t92 228t166 148.5t249.5 53.5t248.5 -52.5t165 -147.5t91.5 -228.5t28 -294.5q0 -158 -27 -293t-88 -233.5t-163.5 -154t-254.5 -55.5t-255 55.5t-165.5 154t-89 232.5t-26.5 294zM217 1544l342 289h82l344 -289l-100 -106l-287 168l-281 -168z M401 707q0 -111 7.5 -199t29 -150.5t61.5 -96.5t105 -34q63 0 103.5 35t60.5 98.5t27.5 151.5t7.5 195q0 100 -6 186t-27.5 149.5t-60.5 98.5t-105 35q-68 0 -107.5 -35t-61 -97.5t-28 -148.5t-6.5 -188z" />
<glyph unicode="&#xd5;" horiz-adv-x="1202" d="M68 707q0 160 28.5 293t92 228t166 148.5t249.5 53.5t248.5 -52.5t165 -147.5t91.5 -228.5t28 -294.5q0 -158 -27 -293t-88 -233.5t-163.5 -154t-254.5 -55.5t-255 55.5t-165.5 154t-89 232.5t-26.5 294zM233 1565q8 20 27 53t47.5 64.5t67.5 54t92 22.5q41 0 74.5 -11 t64.5 -25.5t58.5 -25.5t56.5 -11q43 0 71.5 18t51.5 49l125 -78q-12 -23 -31.5 -53.5t-48.5 -58t-67 -47t-85 -19.5q-43 0 -77.5 10.5t-65.5 23.5t-60.5 23.5t-60.5 10.5q-37 0 -65.5 -20.5t-55.5 -49.5zM401 707q0 -111 7.5 -199t29 -150.5t61.5 -96.5t105 -34 q63 0 103.5 35t60.5 98.5t27.5 151.5t7.5 195q0 100 -6 186t-27.5 149.5t-60.5 98.5t-105 35q-68 0 -107.5 -35t-61 -97.5t-28 -148.5t-6.5 -188z" />
<glyph unicode="&#xd6;" horiz-adv-x="1202" d="M68 707q0 160 28.5 293t92 228t166 148.5t249.5 53.5t248.5 -52.5t165 -147.5t91.5 -228.5t28 -294.5q0 -158 -27 -293t-88 -233.5t-163.5 -154t-254.5 -55.5t-255 55.5t-165.5 154t-89 232.5t-26.5 294zM258 1632q0 59 40 100.5t99 41.5t99.5 -41t40.5 -101 q0 -59 -40.5 -100t-99.5 -41t-99 41t-40 100zM401 707q0 -111 7.5 -199t29 -150.5t61.5 -96.5t105 -34q63 0 103.5 35t60.5 98.5t27.5 151.5t7.5 195q0 100 -6 186t-27.5 149.5t-60.5 98.5t-105 35q-68 0 -107.5 -35t-61 -97.5t-28 -148.5t-6.5 -188zM670 1632 q0 59 40 100.5t97 41.5q59 0 98 -41t39 -101q0 -59 -39 -100t-98 -41q-57 0 -97 41t-40 100z" />
<glyph unicode="&#xd8;" horiz-adv-x="1202" d="M66 43l108 154q-57 98 -81.5 227t-24.5 283q0 160 28.5 293t92 228t166 148.5t249.5 53.5q117 0 203 -33t147 -92l93 129l96 -72l-111 -156q55 -94 80 -220t25 -279q0 -158 -27 -293t-88 -233.5t-163.5 -154t-254.5 -55.5q-119 0 -206 34t-150 93l-88 -125zM401 612.5 q0 -45.5 5 -86.5l362 514q-20 63 -59 99.5t-105 36.5q-68 0 -107.5 -35t-61 -97.5t-28 -148.5t-6.5 -188v-94.5zM434 362q23 -66 63 -100.5t107 -34.5q63 0 103.5 35t60.5 98.5t27.5 152t7.5 194.5q0 90 -6 167z" />
<glyph unicode="&#xd9;" horiz-adv-x="1191" d="M94 408v993h312v-965q0 -94 37.5 -152.5t136.5 -58.5q102 0 149 59.5t47 151.5v965h311v-993q0 -98 -32.5 -178t-97 -137.5t-160 -89.5t-219.5 -32q-125 0 -216.5 32t-150.5 88t-88 137t-29 180zM219 1630l154 201l334 -264l-95 -131z" />
<glyph unicode="&#xda;" horiz-adv-x="1191" d="M94 408v993h312v-965q0 -94 37.5 -152.5t136.5 -58.5q102 0 149 59.5t47 151.5v965h311v-993q0 -98 -32.5 -178t-97 -137.5t-160 -89.5t-219.5 -32q-125 0 -216.5 32t-150.5 88t-88 137t-29 180zM463 1569l336 264l151 -201l-391 -194z" />
<glyph unicode="&#xdb;" horiz-adv-x="1191" d="M94 408v993h312v-965q0 -94 37.5 -152.5t136.5 -58.5q102 0 149 59.5t47 151.5v965h311v-993q0 -98 -32.5 -178t-97 -137.5t-160 -89.5t-219.5 -32q-125 0 -216.5 32t-150.5 88t-88 137t-29 180zM205 1544l342 289h82l344 -289l-101 -106l-286 168l-281 -168z" />
<glyph unicode="&#xdc;" horiz-adv-x="1191" d="M94 408v993h312v-965q0 -94 37.5 -152.5t136.5 -58.5q102 0 149 59.5t47 151.5v965h311v-993q0 -98 -32.5 -178t-97 -137.5t-160 -89.5t-219.5 -32q-125 0 -216.5 32t-150.5 88t-88 137t-29 180zM248 1630q0 59 40 100.5t99 41.5t99 -41t40 -101q0 -59 -40 -100t-99 -41 t-99 41t-40 100zM659 1630q0 59 40 100.5t98 41.5q59 0 98 -41t39 -101q0 -59 -39 -100t-98 -41q-57 0 -97.5 41t-40.5 100z" />
<glyph unicode="&#xdd;" horiz-adv-x="1165" d="M16 1401h326l158 -367l80 -205h10l80 205l155 367h324l-416 -858v-543h-309v539zM461 1569l336 264l151 -201l-391 -194z" />
<glyph unicode="&#xde;" horiz-adv-x="1048" d="M92 0v1403h314v-287h108q63 0 145 -10t155 -52t123 -125t50 -227q0 -137 -44 -223t-113.5 -135t-156.5 -66.5t-173 -17.5h-94v-260h-314zM406 500h69q43 0 80 7t62.5 28.5t41 59.5t15.5 97q0 57 -15.5 92t-40 54.5t-56.5 26.5t-64 7h-92v-372z" />
<glyph unicode="&#xdf;" horiz-adv-x="1015" d="M84 0v1024q0 88 22.5 169t70.5 142.5t125 97t185 35.5q92 0 168 -26.5t129.5 -74.5t82 -116.5t28.5 -152.5q0 -31 -5 -68t-21.5 -72.5t-46 -68.5t-77.5 -53v-11q113 -41 159 -141t46 -225q0 -109 -20.5 -199t-63.5 -153.5t-107.5 -98.5t-150.5 -35q-31 0 -72.5 8.5 t-70.5 22.5l10 184q100 0 136 71t36 218q0 49 -6 91t-24.5 74t-52.5 50.5t-87 18.5v180q66 10 98.5 58t32.5 145q0 70 -28.5 122t-94.5 52q-59 0 -84.5 -53.5t-25.5 -155.5v-1059h-291z" />
<glyph unicode="&#xf7;" d="M82 416v211h967v-211h-967zM403 168q0 66 47.5 111t114.5 45q68 0 114 -45t46 -111t-46 -111t-114 -45t-115 45t-47 111zM403 870q0 66 47.5 111t114.5 45q68 0 114 -45t46 -111t-46 -111.5t-114 -45.5t-115 45t-47 112z" />
<glyph unicode="&#x152;" horiz-adv-x="1628" d="M68 707q0 160 28.5 293t92 228t166 148.5t249.5 53.5q53 0 98.5 -7.5t85.5 -19.5h777v-250h-518v-299h456v-248h-456v-356h518v-250h-762q-92 -29 -199 -29q-152 0 -255 55.5t-165.5 154t-89 232.5t-26.5 294zM401 707q0 -111 7.5 -199t29 -150.5t61 -96.5t105.5 -34 q35 0 72 9.5t61 31.5v836q-45 72 -133 72q-68 0 -107.5 -35t-61 -97.5t-28 -148.5t-6.5 -188z" />
<glyph unicode="&#x178;" horiz-adv-x="1165" d="M16 1401h326l158 -367l80 -205h10l80 205l155 367h324l-416 -858v-543h-309v539zM240 1620q0 59 39.5 100t99.5 41q59 0 99 -41t40 -100t-40 -100t-99 -41t-99 41t-40 100zM651 1620q0 59 40 100t97 41q59 0 98.5 -41t39.5 -100t-39.5 -100t-98.5 -41q-57 0 -97 41 t-40 100z" />
<glyph unicode="&#x192;" d="M63 -158l48 209q16 -4 38.5 -7t38.5 -3q61 0 96 56.5t48 138.5l65 436h-133v213h166l16 112q8 57 31 132t70 140.5t122.5 110.5t192.5 45q45 0 97.5 -9t105.5 -32l-59 -204q-23 6 -52.5 9t-52.5 3q-72 0 -107.5 -58.5t-50.5 -138.5l-16 -110h176v-213h-209l-63 -441 q-8 -59 -27.5 -131.5t-60.5 -138t-112 -110t-181 -44.5q-41 0 -90 9.5t-97 25.5z" />
<glyph unicode="&#x2c6;" horiz-adv-x="874" d="M47 1167l342 344h88l340 -342l-102 -108l-285 205l-283 -205z" />
<glyph unicode="&#x2da;" horiz-adv-x="1003" d="M293 1309q0 45 17.5 86t48 72.5t72.5 50t91 18.5t91 -18.5t73 -49t48.5 -72.5t17.5 -87q0 -47 -18.5 -89t-49.5 -73t-73 -48.5t-89 -17.5q-49 0 -91 18.5t-72.5 49.5t-48 72t-17.5 88zM438 1309q0 -37 24.5 -63.5t59.5 -26.5t60.5 27.5t25.5 62.5t-25.5 61.5t-60.5 26.5 t-59.5 -27t-24.5 -61z" />
<glyph unicode="&#x2dc;" horiz-adv-x="1017" d="M156 1190q8 20 26.5 53t47 64.5t67.5 54t92 22.5q41 0 75 -11t64.5 -25.5t58 -25.5t56.5 -11q43 0 71.5 18.5t51.5 48.5l125 -78q-12 -23 -31.5 -53t-48.5 -58t-67 -47.5t-85 -19.5q-43 0 -77.5 10.5t-65.5 23.5t-60.5 23.5t-60.5 10.5q-37 0 -65.5 -20.5t-55.5 -49.5z " />
<glyph unicode="&#x3a9;" horiz-adv-x="1269" d="M74 0v246h119l4 12q-68 82 -89.5 207t-21.5 266q0 154 29.5 283t95 222t168 145.5t250.5 52.5q145 0 248.5 -52.5t169 -145.5t95 -222t29.5 -283q0 -143 -22.5 -267t-89.5 -206l6 -12h121v-246h-494v264q47 14 77 56t45 103.5t20.5 138.5t5.5 163q0 98 -9.5 182 t-32 144.5t-64.5 94.5t-105 34q-68 0 -110 -34t-65.5 -94.5t-31.5 -144.5t-8 -182q0 -90 5 -168t21.5 -138.5t47 -100t79.5 -54.5v-264h-493z" />
<glyph unicode="&#x3c0;" horiz-adv-x="1050" d="M115 0v987h829v-987h-297v758h-231v-758h-301z" />
<glyph unicode="&#x401;" horiz-adv-x="985" d="M92 0v1403h828v-250h-517v-299h455v-248h-455v-356h517v-250h-828zM176 1632q0 59 40 100.5t99 41.5t99.5 -41t40.5 -101q0 -59 -40.5 -100t-99.5 -41t-99 41t-40 100zM588 1632q0 59 40 100.5t97 41.5q59 0 98 -41t39 -101q0 -59 -39 -100t-98 -41q-57 0 -97 41t-40 100 z" />
<glyph unicode="&#x402;" horiz-adv-x="1437" d="M25 1151v252h1065v-252h-453v-346l90 47q133 72 254 74q92 0 162.5 -36t117 -98.5t70 -147.5t23.5 -185q0 -117 -25.5 -224.5t-67.5 -198.5t-96.5 -166t-113.5 -128l-183 141q86 104 128 244.5t42 280.5q0 76 -12 124t-33.5 75.5t-51.5 37.5t-67 10q-41 0 -108.5 -18.5 t-128.5 -54.5v-582h-311v1151h-301z" />
<glyph unicode="&#x403;" horiz-adv-x="954" d="M90 0v1403h825v-250h-514v-1153h-311zM330 1569l336 264l151 -201l-391 -194z" />
<glyph unicode="&#x404;" horiz-adv-x="1044" d="M70 713q0 141 30.5 270t98 228.5t172 159t252.5 59.5q127 0 215 -28t157 -69l-80 -209q-59 25 -124.5 38.5t-126.5 13.5q-117 0 -176.5 -87.5t-75.5 -234.5h438v-248h-440q0 -199 65.5 -287t165.5 -88q66 0 129.5 15.5t157.5 54.5l84 -213q-84 -59 -193.5 -88t-238.5 -29 q-145 0 -243.5 51.5t-158 147.5t-84 233.5t-24.5 309.5z" />
<glyph unicode="&#x405;" horiz-adv-x="1077" d="M66 1030q0 111 42 187.5t110.5 124t158.5 68t186 20.5q41 0 89 -5.5t98.5 -16.5t97.5 -27.5t84 -37.5q-4 -10 -13.5 -40.5t-20.5 -66.5t-20.5 -66.5t-13.5 -41.5q-49 18 -99 29.5t-93 16t-75 5.5t-42 1q-31 0 -60.5 -7.5t-53 -22.5t-38 -43t-14.5 -67q0 -74 44 -107.5 t142 -64.5q117 -39 200 -77.5t135.5 -91t76 -124t23.5 -174.5q0 -115 -40 -196.5t-111 -133t-168 -75t-212 -23.5q-45 0 -98 5.5t-107.5 15.5t-105.5 26.5t-90 38.5l78 226q47 -18 95 -29.5t91 -19t76 -9.5t51 -2q109 0 162 38t53 134q0 45 -12.5 76t-37 51.5t-63.5 37 t-94 34.5q-96 33 -172 64.5t-129 78.5t-81.5 116t-28.5 175z" />
<glyph unicode="&#x406;" horiz-adv-x="608" d="M150 0v1401h311v-1401h-311z" />
<glyph unicode="&#x407;" horiz-adv-x="608" d="M-35 1632q0 59 40 100.5t99 41.5t99.5 -41t40.5 -101q0 -59 -40.5 -100t-99.5 -41t-99 41t-40 100zM150 0v1401h311v-1401h-311zM377 1632q0 59 40 100.5t97 41.5q59 0 98 -41t39 -101q0 -59 -39 -100t-98 -41q-57 0 -97 41t-40 100z" />
<glyph unicode="&#x408;" horiz-adv-x="851" d="M16 41q16 53 33 109.5t33 109.5q66 -16 110 -23.5t84 -7.5q49 0 80 13.5t48.5 41t23.5 71.5t6 108v704q-41 4 -82 10.5t-82 12.5v211h475v-869q0 -90 -5 -188t-44 -180t-124 -135.5t-244 -53.5q-78 0 -156 14.5t-156 51.5z" />
<glyph unicode="&#x409;" horiz-adv-x="1816" d="M-12 125q74 61 122 110.5t77.5 121t41 181t11.5 287.5v578h862v-549h172q70 0 152.5 -15.5t154.5 -60.5t121 -128t49 -218q0 -131 -49 -215t-122 -132t-157 -66.5t-151 -18.5h-479v1151h-261v-315q0 -207 -23.5 -356.5t-73.5 -256t-129 -179.5t-189 -124zM1102 242h151 q29 0 62 9t60.5 31.5t46 59.5t18.5 92t-18.5 90t-48.5 54.5t-67.5 27.5t-74.5 8h-129v-372z" />
<glyph unicode="&#x40a;" horiz-adv-x="1820" d="M92 0v1403h309v-547h392v547h311v-549h174q70 0 152.5 -15.5t154.5 -60.5t121 -128t49 -218q0 -131 -49 -215t-122 -132t-157 -66.5t-151 -18.5h-483v610h-392v-610h-309zM1104 242h153q29 0 61 9t59.5 31.5t46 59.5t18.5 92t-18.5 90t-48 54.5t-66.5 27.5t-74 8h-131 v-372z" />
<glyph unicode="&#x40b;" horiz-adv-x="1409" d="M25 1151v252h1060v-252h-448v-352l74 39q102 53 174.5 70.5t130.5 17.5q106 0 167.5 -35t92.5 -88t39 -116.5t8 -121.5v-565h-305v494q0 80 -32 120.5t-109 40.5q-59 0 -127 -24.5t-113 -52.5v-578h-311v1151h-301z" />
<glyph unicode="&#x40c;" horiz-adv-x="1196" d="M94 0v1401h314v-596h8l407 596h355l-484 -668l488 -733h-377l-389 635l-8 -2v-633h-314zM463 1569l336 264l151 -201l-391 -194z" />
<glyph unicode="&#x40e;" horiz-adv-x="1157" d="M25 1401h313q33 -111 64.5 -219.5t66.5 -218.5l94 -306h10l76 224l174 520h305q-92 -246 -179 -487.5t-177 -487.5q-53 -147 -102 -236.5t-108.5 -138.5t-140.5 -67.5t-198 -20.5l-22 236q102 14 162.5 39.5t85.5 99.5l12 37l-90 67zM266 1798h172q8 -61 47 -114.5 t105 -53.5q33 0 59.5 14.5t46 39t31.5 54t16 60.5h166q0 -59 -20.5 -121.5t-61.5 -113t-100 -83t-137 -32.5q-80 0 -140.5 32.5t-101.5 83t-61.5 113t-20.5 121.5z" />
<glyph unicode="&#x40f;" horiz-adv-x="1189" d="M92 0v1403h311v-1153h385v1153h312v-1403h-367l-24 -365h-211l-23 365h-383z" />
<glyph unicode="&#x410;" horiz-adv-x="1187" d="M18 0l390 1401h362q16 -59 48 -169t70 -246t80 -285.5t79.5 -285.5t69.5 -247t48 -168h-321q-6 23 -16.5 67t-21.5 92t-21.5 92t-16.5 66h-354q-6 -23 -16.5 -66.5t-21.5 -91.5t-20.5 -92t-15.5 -67h-322zM467 557h248q-6 20 -15.5 60t-18.5 84t-18.5 84t-13.5 61 l-55 258h-12q-4 -16 -10.5 -53t-14.5 -77t-15 -77t-12 -53z" />
<glyph unicode="&#x411;" horiz-adv-x="1120" d="M94 0v1403h815v-250h-503v-299h174q70 0 152.5 -15.5t154 -60.5t121 -128t49.5 -218q0 -131 -49.5 -215t-122 -132t-156.5 -66.5t-151 -18.5h-484zM406 242h153q29 0 60.5 9t59.5 31.5t46 59.5t18 92t-18 90t-48 54.5t-67 27.5t-73 8h-131v-372z" />
<glyph unicode="&#x412;" horiz-adv-x="1101" d="M92 0v1403h494q84 0 159.5 -22.5t133 -67.5t91.5 -114t34 -161q0 -90 -45.5 -168.5t-145.5 -117.5v-7q127 -39 180.5 -129t53.5 -206q0 -90 -31 -165t-85 -129.5t-128 -85t-162 -30.5h-549zM401 238h123q45 0 85 9t69 30.5t45 58.5t16 92q0 100 -62.5 145t-152.5 45h-123 v-380zM401 852h119q76 0 126 39t50 131q0 41 -15 67.5t-40 43t-54.5 22.5t-56.5 6h-129v-309z" />
<glyph unicode="&#x413;" horiz-adv-x="954" d="M90 0v1403h825v-250h-514v-1153h-311z" />
<glyph unicode="&#x414;" horiz-adv-x="1437" d="M35 236q29 4 59.5 5t59.5 3q43 33 72.5 77t49 112.5t31.5 172t21 254.5q6 135 12 271.5t14 271.5h889v-1155l123 -6l-6 -582h-266l-7 340h-776l-6 -342h-266zM492 248h440v903h-309l-13 -291q-6 -137 -12 -231t-18.5 -163t-33 -119t-54.5 -99z" />
<glyph unicode="&#x415;" horiz-adv-x="985" d="M92 0v1403h828v-250h-517v-299h455v-248h-455v-356h517v-250h-828z" />
<glyph unicode="&#x416;" horiz-adv-x="1757" d="M16 0l414 725l-407 678h356l330 -606l8 2v604h311v-604l8 -2l342 606h359l-424 -678l428 -725h-377l-328 627h-8v-627h-311v627h-8l-316 -627h-377z" />
<glyph unicode="&#x417;" horiz-adv-x="1046" d="M31 74l75 196q74 -29 146 -49t143 -20q47 0 92 11t79 36.5t54.5 66.5t20.5 99q0 39 -9 75.5t-37 66.5t-76 48.5t-124 18.5h-129v217h148q117 0 171 53t54 139q0 68 -55.5 113t-169.5 45q-66 0 -136.5 -13.5t-134.5 -43.5l-71 190q61 35 123.5 53.5t117 27.5t98.5 10t72 1 q223 0 339 -91t116 -271q0 -96 -51 -176t-158 -125v-9q106 -41 166.5 -124.5t60.5 -196.5q0 -119 -38.5 -205t-108.5 -141.5t-163 -82t-202 -26.5q-41 0 -93 5t-108.5 17.5t-111.5 33t-100 51.5z" />
<glyph unicode="&#x418;" horiz-adv-x="1247" d="M96 0v1399h299v-891h11l126 258l332 633h295v-1399h-295v858h-12l-131 -256l-326 -602h-299z" />
<glyph unicode="&#x419;" horiz-adv-x="1247" d="M96 0v1399h299v-891h11l126 258l332 633h295v-1399h-295v858h-12l-131 -256l-326 -602h-299zM301 1825h172q8 -61 47 -114.5t105 -53.5q33 0 59.5 14.5t46 39t31.5 54t16 60.5h166q0 -59 -20.5 -122t-61.5 -113t-100.5 -82.5t-136.5 -32.5q-80 0 -140.5 32.5t-101.5 82.5 t-61.5 112.5t-20.5 122.5z" />
<glyph unicode="&#x41a;" horiz-adv-x="1196" d="M94 0v1401h314v-596h8l407 596h355l-484 -668l488 -733h-377l-389 635l-8 -2v-633h-314z" />
<glyph unicode="&#x41b;" horiz-adv-x="1212" d="M-12 125q74 61 122 110.5t76.5 121t41 181t12.5 287.5v578h872v-1403h-317v1151h-263v-315q0 -207 -23.5 -356.5t-73.5 -256t-128 -179.5t-188 -124z" />
<glyph unicode="&#x41c;" horiz-adv-x="1497" d="M109 0v1399h348l190 -455l103 -235h6l104 235l189 455h346v-1399h-297v887h-13l-84 -197l-149 -364h-199l-153 374l-80 191h-12v-891h-299z" />
<glyph unicode="&#x41d;" horiz-adv-x="1196" d="M92 0v1403h309v-553h394v553h309v-1403h-309v606h-394v-606h-309z" />
<glyph unicode="&#x41e;" horiz-adv-x="1202" d="M68 707q0 160 28.5 293t92 228t166 148.5t249.5 53.5t248.5 -52.5t165 -147.5t91.5 -228.5t28 -294.5q0 -158 -27 -293t-88 -233.5t-163.5 -154t-254.5 -55.5t-255 55.5t-165.5 154t-89 232.5t-26.5 294zM401 707q0 -111 7.5 -199t29 -150.5t61.5 -96.5t105 -34 q63 0 103.5 35t60.5 98.5t27.5 151.5t7.5 195q0 100 -6 186t-27.5 149.5t-60.5 98.5t-105 35q-68 0 -107.5 -35t-61 -97.5t-28 -148.5t-6.5 -188z" />
<glyph unicode="&#x41f;" horiz-adv-x="1189" d="M92 0v1403h1008v-1403h-312v1153h-385v-1153h-311z" />
<glyph unicode="&#x420;" horiz-adv-x="1048" d="M92 0v1403h422q63 0 145 -10.5t155 -52.5t123 -124.5t50 -226.5q0 -137 -44 -223t-113.5 -134t-156.5 -65.5t-173 -17.5h-94v-549h-314zM406 788h69q43 0 80 7.5t62.5 29t41 58.5t15.5 98q0 57 -15.5 92t-40 54.5t-56.5 26.5t-64 7h-92v-373z" />
<glyph unicode="&#x421;" horiz-adv-x="1044" d="M70 713q0 141 30.5 270t98 228.5t172 159t252.5 59.5q127 0 215 -28t157 -69l-80 -209q-59 25 -124.5 38.5t-126.5 13.5q-137 0 -197.5 -120t-60.5 -325q0 -242 59 -371t176 -129q66 0 129.5 15.5t157.5 54.5l84 -213q-90 -61 -196.5 -89t-235.5 -28q-145 0 -243.5 57.5 t-158 157t-84 234.5t-24.5 293z" />
<glyph unicode="&#x422;" horiz-adv-x="974" d="M25 1153v250h925v-250h-311v-1153h-313v1153h-301z" />
<glyph unicode="&#x423;" horiz-adv-x="1155" d="M25 1401h313q33 -111 64.5 -219.5t66.5 -218.5l94 -306h10l76 224l174 520h305q-92 -246 -179 -487.5t-177 -487.5q-53 -147 -102 -236.5t-108.5 -138.5t-140.5 -67.5t-198 -20.5l-22 236q102 14 162.5 39.5t85.5 99.5l12 37l-90 67z" />
<glyph unicode="&#x424;" horiz-adv-x="1550" d="M68 707q0 131 37.5 238.5t109.5 185t173 125t230 57.5v88h312v-88q129 -10 230.5 -56.5t173 -124t109.5 -186t38 -241.5q0 -270 -141.5 -429t-409.5 -186v-90h-312v92q-260 23 -405 182.5t-145 432.5zM389 713q0 -352 229 -387v764q-111 -8 -170 -110.5t-59 -266.5z M930 326q111 12 169 109.5t58 277.5q0 174 -53 271t-174 106v-764z" />
<glyph unicode="&#x425;" horiz-adv-x="1187" d="M29 0l387 723q-92 170 -182.5 338t-182.5 340h340q31 -68 62.5 -135.5t64.5 -132.5q18 -43 37.5 -90.5t40.5 -90.5h8q23 53 42.5 97.5t41.5 97.5q29 57 57.5 126.5t57.5 127.5h340l-367 -676l391 -725h-340q-33 68 -65.5 134.5t-65.5 135.5q-23 51 -46 102.5t-48 102.5 h-8q-23 -51 -45.5 -93t-44.5 -93q-35 -70 -70 -145.5t-65 -143.5h-340z" />
<glyph unicode="&#x426;" horiz-adv-x="1288" d="M98 0v1403h310v-1157h389v1157h309v-1155l131 -6l-6 -582h-266l-7 340h-860z" />
<glyph unicode="&#x427;" horiz-adv-x="1163" d="M59 887v516h310v-438q0 -78 32.5 -120t112.5 -42q59 0 113.5 13t113.5 42v545h312v-1403h-312v621q-115 -57 -213 -71.5t-157 -14.5q-106 0 -168 33.5t-93.5 85t-41 113.5t-9.5 120z" />
<glyph unicode="&#x428;" horiz-adv-x="1646" d="M96 0v1403h312v-1153h268v1153h309v-1153h256v1153h311v-1403h-1456z" />
<glyph unicode="&#x429;" horiz-adv-x="1734" d="M98 0v1403h310v-1157h268v1157h311v-1157h256v1157h309v-1155l131 -6l-6 -582h-264l-8 340h-1307z" />
<glyph unicode="&#x42a;" horiz-adv-x="1392" d="M20 1153v248h658v-549h170q70 0 153.5 -15.5t155.5 -60.5t121 -128t49 -218q0 -131 -49 -215t-122 -132t-155.5 -66.5t-152.5 -18.5h-483v1155h-345zM678 238h151q29 0 62 9t60.5 31.5t45 59.5t17.5 92t-18.5 90t-47 54.5t-66.5 27.5t-75 8h-129v-372z" />
<glyph unicode="&#x42b;" horiz-adv-x="1581" d="M94 -2v1403h314v-549h172q70 0 152.5 -15.5t154 -60.5t121 -128t49.5 -218q0 -131 -49.5 -215t-122 -132t-156.5 -66.5t-151 -18.5h-484zM408 238h153q29 0 60.5 9t59.5 31.5t45 59.5t17 92t-18 90t-47 54.5t-67 27.5t-74 8h-129v-372zM1176 0v1401h311v-1401h-311z" />
<glyph unicode="&#x42c;" horiz-adv-x="1122" d="M94 0v1403h314v-549h172q70 0 152.5 -15.5t154 -60.5t121 -128t49.5 -218q0 -131 -49.5 -215t-122 -132t-156.5 -66.5t-151 -18.5h-484zM408 242h153q29 0 60.5 9t59.5 31.5t45 59.5t17 92t-18 90t-47 54.5t-67 27.5t-74 8h-129v-372z" />
<glyph unicode="&#x42d;" horiz-adv-x="1056" d="M20 88l84 213q94 -39 158 -54.5t129 -15.5q98 0 166 92.5t70 282.5h-437v248h437q-2 154 -60.5 238t-175.5 84q-61 0 -126.5 -13.5t-125.5 -38.5l-80 209q70 41 161 69t218 28q154 0 256.5 -54.5t163 -148.5t86 -222t25.5 -278q0 -158 -28 -296t-91.5 -239.5t-164 -161 t-245.5 -59.5q-258 0 -420 117z" />
<glyph unicode="&#x42e;" horiz-adv-x="1648" d="M92 0v1403h309v-551h148q12 131 45 237.5t94.5 182.5t153.5 117t223 41q147 0 246.5 -52.5t160 -147.5t86 -228.5t25.5 -294.5q0 -158 -23.5 -293t-83 -233.5t-159.5 -154t-252 -55.5q-139 0 -235.5 47.5t-157 131t-90 200.5t-37.5 256h-144v-606h-309zM870 707 q0 -111 5.5 -199t26 -150.5t59 -96.5t104.5 -34q63 0 101 35t57.5 98.5t24.5 151.5t5 195q0 100 -5 186t-23.5 149.5t-56 98.5t-103.5 35q-68 0 -105.5 -35t-58 -97.5t-26 -148.5t-5.5 -188z" />
<glyph unicode="&#x42f;" horiz-adv-x="1073" d="M14 0l203 489l133 105q-59 18 -109.5 47t-87 75t-57 109.5t-20.5 153.5q0 131 45 214t114.5 129t153.5 62.5t160 16.5h422v-1401h-309v565h-123q-53 -141 -105.5 -282.5t-105.5 -282.5h-314zM387 981q0 -53 13.5 -88t39 -54.5t62.5 -26.5t84 -7h76v354h-91 q-37 0 -69.5 -8t-58 -28.5t-41 -55.5t-15.5 -86z" />
<glyph unicode="&#x430;" horiz-adv-x="1003" d="M53 270q0 100 46 165t121 104t168 55t185 20v41q0 66 -33.5 97.5t-111.5 31.5q-59 0 -124.5 -10t-125.5 -26l-47 186q96 41 189.5 59.5t158.5 18.5q188 0 291.5 -78t103.5 -266v-465h91v-191q-63 -16 -126 -27.5t-108 -11.5q-59 0 -89 19.5t-40 66.5l-10 41l-107 -67 q-41 -25 -77.5 -43.5t-67.5 -16.5q-98 0 -154.5 31t-86 77t-38 97t-8.5 92zM346 295q0 -51 18.5 -82t67.5 -31q31 0 73 19.5t70 40.5v204q-31 -2 -70.5 -8t-75.5 -22.5t-59.5 -45t-23.5 -75.5z" />
<glyph unicode="&#x431;" horiz-adv-x="1028" d="M66 575q0 111 17 227t64.5 220t130 192.5t216.5 145.5q72 35 151.5 66.5t173.5 68.5l76 -201q-82 -41 -174 -77.5t-164 -71.5q-106 -51 -147 -115.5t-54 -126.5l6 -2q41 33 96.5 51.5t108.5 18.5q104 0 180 -35t125.5 -98.5t73 -150.5t23.5 -191q0 -252 -120 -387.5 t-345 -135.5q-135 0 -220 44t-134.5 124t-66.5 190.5t-17 243.5zM389 492q0 -170 30 -239t101 -69q72 0 103.5 69t31.5 228q0 143 -27.5 214t-103.5 71q-80 0 -107.5 -69.5t-27.5 -204.5z" />
<glyph unicode="&#x432;" horiz-adv-x="991" d="M84 0v987h479q70 0 129.5 -15.5t103.5 -48t68.5 -80.5t24.5 -112q0 -27 -6 -57.5t-20.5 -58t-38 -51t-56.5 -36.5q88 -25 124 -88t36 -137q0 -66 -25.5 -121t-72 -95t-111 -63.5t-141.5 -23.5h-494zM375 217h143q45 0 80 23.5t35 76.5t-32 78t-87 25h-139v-203zM375 596 h121q45 0 73.5 20.5t28.5 73.5q0 43 -31.5 60.5t-58.5 17.5h-133v-172z" />
<glyph unicode="&#x433;" horiz-adv-x="804" d="M72 0v987h710v-231h-415v-756h-295z" />
<glyph unicode="&#x434;" horiz-adv-x="1148" d="M27 217l92 8q29 29 49 56.5t34.5 66.5t24 93.5t13.5 136.5l22 407h725v-762q27 -2 54.5 -3t54.5 -1l-6 -516h-242l-6 297h-561l-7 -297h-241zM414 223h284v543h-190q-6 -117 -12.5 -203t-16.5 -149.5t-25.5 -108.5t-39.5 -82z" />
<glyph unicode="&#x435;" horiz-adv-x="976" d="M70 485q0 43 5 99.5t20.5 115t45 114.5t78.5 100t120 72t169 28q152 0 235.5 -56.5t124.5 -143.5t49.5 -194.5t10.5 -207.5h-547q2 -47 11 -87t30.5 -69t58.5 -45t97 -16q45 0 106 7t154 40l55 -191q-84 -41 -171 -60.5t-179 -19.5q-145 0 -237.5 43t-144.5 115 t-71.5 165t-19.5 191zM377 565h258q0 47 -4 91t-18.5 77t-39 52.5t-65.5 19.5q-37 0 -60.5 -19.5t-39 -51.5t-22.5 -76t-9 -93z" />
<glyph unicode="&#x436;" horiz-adv-x="1466" d="M12 987h334q16 -27 49 -86t68 -124.5t67.5 -124t49.5 -85.5h4v420h297v-420h4q18 27 50 85.5t67.5 124t67.5 125t50 85.5h332q-20 -29 -62 -93.5t-87.5 -135t-86 -135t-61.5 -93.5q20 -33 61 -107.5t86.5 -157.5t86.5 -157.5t61 -107.5h-340q-16 31 -48 99.5t-65.5 143 t-64.5 143.5t-47 99h-4v-485h-297v485h-4q-16 -31 -47 -99.5t-65 -143t-64.5 -143t-47.5 -99.5h-340l293 530q-20 29 -61 93.5t-86 135t-87 135t-63 93.5z" />
<glyph unicode="&#x437;" horiz-adv-x="888" d="M18 61q18 47 39 91.5t39 91.5q59 -23 122 -37t124 -14q92 0 129 32.5t37 83.5q0 41 -31 75t-115 34h-114v184h119q53 0 89 28.5t36 76.5q0 39 -30 68.5t-114 29.5q-53 0 -116.5 -14.5t-116.5 -36.5q-16 45 -31.5 90t-32.5 90q123 53 223.5 66.5t155.5 13.5q174 0 265 -72 t91 -199q0 -53 -30.5 -108t-93.5 -88v-10q72 -31 111.5 -93.5t39.5 -136.5q0 -82 -32.5 -143.5t-90 -103.5t-137.5 -62.5t-172 -20.5q-33 0 -77 4.5t-92 14.5t-98.5 25.5t-95.5 39.5z" />
<glyph unicode="&#x438;" horiz-adv-x="1019" d="M78 0v985h280v-573l11 -4l67 135l228 446v-4h276v-985h-276v571h-9l-151 -292l-146 -279h-280z" />
<glyph unicode="&#x439;" horiz-adv-x="1019" d="M78 0v985h280v-573l11 -4l67 135l228 446v-4h276v-985h-276v571h-9l-151 -292l-146 -279h-280zM197 1415h172q8 -61 46.5 -114.5t104.5 -53.5q33 0 59.5 14.5t46 39t32 54t16.5 60.5h166q0 -59 -20.5 -121.5t-61.5 -113t-100.5 -83t-137.5 -32.5q-80 0 -140.5 32.5 t-101 83t-61 113t-20.5 121.5z" />
<glyph unicode="&#x43a;" horiz-adv-x="1026" d="M92 0v985h297v-420h4l289 420h332l-348 -455l344 -530h-342l-275 485h-4v-485h-297z" />
<glyph unicode="&#x43b;" horiz-adv-x="1013" d="M-8 127q61 45 98 86t57.5 90t26.5 112.5t6 155.5v416h750v-987h-293v754h-188v-174q0 -139 -17.5 -239.5t-57.5 -175.5t-103.5 -130t-153.5 -103z" />
<glyph unicode="&#x43c;" horiz-adv-x="1277" d="M96 0v985h312l233 -465q59 117 115.5 232.5t115.5 232.5h308v-985h-277v563l-174 -348h-180q-41 86 -83 174t-87 174h-4v-563h-279z" />
<glyph unicode="&#x43d;" horiz-adv-x="991" d="M78 0v987h291v-366h254v366h290v-987h-290v403h-254v-403h-291z" />
<glyph unicode="&#x43e;" horiz-adv-x="1017" d="M66 487q0 94 20 188.5t71.5 169.5t137.5 121t215 46q127 0 212 -43t135 -115t71.5 -165t21.5 -193q0 -98 -20.5 -192.5t-71.5 -168.5t-138 -119t-218 -45q-125 0 -209 43t-134 114t-71.5 164t-21.5 195zM375 508q0 -158 25.5 -241t109.5 -83q80 0 105.5 80t25.5 240 q0 68 -5 123t-19.5 95t-40 61.5t-66.5 21.5q-43 0 -69.5 -21.5t-41 -60.5t-19.5 -94.5t-5 -120.5z" />
<glyph unicode="&#x43f;" horiz-adv-x="1050" d="M115 0v987h829v-987h-297v758h-231v-758h-301z" />
<glyph unicode="&#x440;" horiz-adv-x="1009" d="M86 -410v1397h252l45 -106l94 65q39 25 76 44.5t80 19.5q96 0 158.5 -48.5t98.5 -124t50 -169t14 -183.5q0 -86 -17 -177t-57 -165.5t-104.5 -122t-161.5 -47.5q-37 0 -97 17.5t-128 81.5l-4 -2v-480h-299zM389 238q31 -20 65.5 -35t65.5 -15q37 0 61.5 26t38 67t18.5 95 t5 109q0 145 -28.5 225.5t-98.5 80.5q-29 0 -63.5 -17.5t-63.5 -40.5v-495z" />
<glyph unicode="&#x441;" horiz-adv-x="872" d="M68 479q0 117 26.5 214.5t84 169t143.5 111.5t206 40q104 0 184.5 -21.5t137.5 -50.5l-51 -194q-47 16 -111.5 27t-120.5 11q-96 0 -141 -65.5t-45 -228.5q0 -68 8 -122.5t28.5 -92t55.5 -59t88 -21.5q59 0 117.5 11t130.5 34l53 -193q-78 -41 -153.5 -59.5t-180.5 -18.5 q-117 0 -203.5 38t-143 105.5t-85 161t-28.5 203.5z" />
<glyph unicode="&#x442;" horiz-adv-x="831" d="M18 756v233h793v-233h-254v-756h-291v756h-248z" />
<glyph unicode="&#x443;" horiz-adv-x="1036" d="M25 987h309l112 -424l68 -262h8l80 279l127 407h297l-477 -1397h-281l142 453l-99 104z" />
<glyph unicode="&#x444;" horiz-adv-x="1482" d="M66 487q0 92 15 184.5t52 168t99.5 123t156.5 47.5q31 0 65.5 -19.5t69.5 -48.5l76 -59v542h281v-542l71 55q37 29 70 50.5t68 21.5q96 0 159.5 -47.5t100 -123t51 -167.5t14.5 -185q0 -86 -17.5 -177t-57.5 -164.5t-103 -122t-158 -48.5q-39 0 -84 19.5t-108 79.5 q0 -2 -4 -2v-480h-285v476l-4 4q-63 -59 -108.5 -79t-82.5 -20q-94 0 -158.5 45t-104.5 119t-57 166t-17 184zM377 487q0 -61 6 -115.5t19.5 -95t35 -64.5t51.5 -24q29 0 53.5 13.5t51.5 34.5v499q-25 25 -53.5 39t-46.5 14q-63 0 -90 -81.5t-27 -219.5zM887 238 q27 -20 51.5 -34t52.5 -14q31 0 52.5 24t35 63.5t19.5 94t6 115.5q0 137 -25.5 219t-91.5 82q-47 0 -100 -53v-497z" />
<glyph unicode="&#x445;" horiz-adv-x="995" d="M0 0l338 504l-293 481h315l152 -297h6q37 76 74 149.5t76 147.5h321l-307 -469q78 -129 155.5 -258t155.5 -258h-317q-18 39 -40 81t-42 81q-20 43 -42 82t-42 82h-8q-23 -43 -42.5 -75t-41.5 -75q-23 -39 -49.5 -88t-49.5 -88h-319z" />
<glyph unicode="&#x446;" horiz-adv-x="1091" d="M86 0v985h289v-762h282q0 193 -1 381.5t-1 380.5h289q0 -190 1 -378.5t1 -379.5l111 -6l-6 -518h-240l-8 297h-717z" />
<glyph unicode="&#x447;" horiz-adv-x="987" d="M57 682v303h293v-221q0 -53 3 -91t14.5 -62.5t33 -36t60.5 -11.5q45 0 84 17.5t61 31.5v373h295v-985h-293v416q-68 -37 -130 -53.5t-109 -16.5q-86 0 -145.5 26.5t-96.5 71.5t-53.5 106.5t-16.5 131.5z" />
<glyph unicode="&#x448;" horiz-adv-x="1433" d="M92 0v987h285v-764h203v764h280v-764h193v764h288v-987h-1249z" />
<glyph unicode="&#x449;" horiz-adv-x="1474" d="M84 0v987h287v-764h200v764h283v-764h195q0 193 -1 381.5t-1 380.5h284q0 -190 -1 -378.5t-1 -379.5l111 -6l-4 -518h-242l-6 297h-1104z" />
<glyph unicode="&#x44a;" horiz-adv-x="1208" d="M20 766v223h588v-366h185q68 0 133 -13.5t117.5 -48.5t84 -94t31.5 -152q0 -92 -34.5 -153.5t-88 -97t-118 -51t-123.5 -15.5h-476v768h-299zM608 209h146q35 0 71.5 25.5t36.5 82.5q0 51 -37 73t-90 22h-127v-203z" />
<glyph unicode="&#x44b;" horiz-adv-x="1382" d="M84 -2v989h291v-364h198q57 0 120 -13.5t115 -48.5t85 -94t33 -152q0 -86 -33 -146t-84 -98t-113.5 -55.5t-122.5 -17.5h-489zM375 209h145q35 0 71 25.5t36 82.5q0 51 -36 73t-87 22h-129v-203zM1001 0v991h295v-991h-295z" />
<glyph unicode="&#x44c;" horiz-adv-x="972" d="M84 -2v989h291v-364h198q57 0 120 -13.5t115 -48.5t85 -94t33 -150q0 -88 -33 -148t-84 -98t-113.5 -55.5t-122.5 -17.5h-489zM375 211h145q35 0 71 24.5t36 81.5q0 53 -36 75t-87 22h-129v-203z" />
<glyph unicode="&#x44d;" horiz-adv-x="872" d="M6 47l53 193q72 -23 127.5 -33t114.5 -10q92 0 138 58t48 157h-282v182h280q-4 104 -53 148t-131 44q-53 0 -103.5 -10t-97.5 -26l-53 192q57 29 124 50.5t171 21.5q242 0 351.5 -136.5t109.5 -371.5q0 -115 -30 -213t-88 -170t-145 -112t-204 -40q-104 0 -178 17.5 t-152 58.5z" />
<glyph unicode="&#x44e;" horiz-adv-x="1413" d="M90 0v989h289v-366h121q12 78 38.5 148.5t76 123.5t123 85t180.5 32q127 0 209.5 -43t131 -115t68 -165t19.5 -193q0 -98 -18.5 -192.5t-67 -168.5t-133.5 -119t-216 -45q-113 0 -189.5 34t-124.5 93.5t-72.5 137t-30.5 167.5h-115v-403h-289zM799 508q0 -80 3 -140.5 t15 -101.5t36 -61.5t65 -20.5t64.5 20.5t35.5 60.5t16 99.5t4 139.5q0 68 -3 123t-15 95t-36.5 61.5t-65.5 21.5t-65 -21.5t-36 -60.5t-15 -94.5t-3 -120.5z" />
<glyph unicode="&#x44f;" horiz-adv-x="913" d="M10 0l170 348l92 64q-92 25 -143 90t-51 176q0 90 36 150.5t92 96.5t128 50t143 14h369v-989h-291v375h-70q-41 -90 -85 -187.5t-85 -187.5h-305zM328 684q0 -53 36.5 -76.5t96.5 -23.5h94v200h-82q-61 0 -103 -23.5t-42 -76.5z" />
<glyph unicode="&#x451;" horiz-adv-x="976" d="M70 485q0 43 5 99.5t20.5 115t45 114.5t78.5 100t120 72t169 28q152 0 235.5 -56.5t124.5 -143.5t49.5 -194.5t10.5 -207.5h-547q2 -47 11 -87t30.5 -69t58.5 -45t97 -16q45 0 106 7t154 40l55 -191q-84 -41 -171 -60.5t-179 -19.5q-145 0 -237.5 43t-144.5 115 t-71.5 165t-19.5 191zM162 1270q0 59 40 100t99 41t99 -41t40 -100t-40 -100.5t-99 -41.5t-99 41t-40 101zM377 565h258q0 47 -4 91t-18.5 77t-39 52.5t-65.5 19.5q-37 0 -60.5 -19.5t-39 -51.5t-22.5 -76t-9 -93zM573 1270q0 59 40 100t98 41q59 0 98 -41t39 -100 t-39 -100.5t-98 -41.5q-57 0 -97.5 41t-40.5 101z" />
<glyph unicode="&#x452;" horiz-adv-x="1062" d="M18 1114v158h95v180h295v-180h352v-158h-352v-246l127 74q33 23 70.5 36t66.5 13q92 0 153.5 -38t99.5 -102.5t54 -149.5t16 -177q0 -117 -23.5 -227.5t-64.5 -206.5t-95 -176t-116 -135l-174 125q43 51 76 122.5t56.5 151.5t35.5 163t12 157q0 279 -137 278 q-35 0 -81 -18.5t-74 -36.5v-721h-297v1114h-95z" />
<glyph unicode="&#x453;" horiz-adv-x="802" d="M72 0v987h710v-231h-415v-756h-295zM305 1155l168 393l232 -102l-250 -359z" />
<glyph unicode="&#x454;" horiz-adv-x="872" d="M68 479q0 117 26.5 214.5t84 169t143.5 111.5t206 40q104 0 184.5 -21.5t137.5 -50.5l-51 -194q-47 16 -112 27t-120 11q-80 0 -129 -45t-53 -155h291v-172h-295q4 -98 45 -157.5t135 -59.5q59 0 117.5 11t130.5 34l53 -193q-78 -41 -153.5 -59.5t-180.5 -18.5 q-117 0 -203.5 38t-143 105.5t-85 161t-28.5 203.5z" />
<glyph unicode="&#x455;" horiz-adv-x="845" d="M41 43l55 195q31 -10 70 -19.5t77 -16.5t72.5 -11.5t59.5 -4.5q66 0 100.5 22t34.5 77t-34 77.5t-93 36.5q-82 16 -143.5 38t-103.5 55.5t-63.5 85t-21.5 124.5q0 86 34 145.5t89 96.5t125 53.5t143 16.5q82 0 169 -17.5t155 -52.5l-51 -188q-29 8 -63 15t-67.5 12 t-64.5 7.5t-51 2.5q-123 0 -123 -84q0 -41 31 -55.5t84 -26.5q74 -16 138.5 -37t112.5 -56.5t75.5 -93t27.5 -147.5t-37 -150.5t-98.5 -99.5t-140 -55.5t-162.5 -16.5q-74 0 -168 17.5t-168 54.5z" />
<glyph unicode="&#x456;" horiz-adv-x="598" d="M66 823v166h409v-989h-299v797zM152 1305q0 70 47 120t116 50q70 0 117 -51.5t47 -118.5q0 -68 -47 -117t-117 -49t-116.5 47t-46.5 119z" />
<glyph unicode="&#x457;" horiz-adv-x="598" d="M-41 1266q0 59 40 100t99 41t99.5 -41t40.5 -100t-40.5 -100.5t-99.5 -41.5t-99 41t-40 101zM66 823v166h411v-989h-301v797zM371 1266q0 59 40 100t97 41q59 0 98 -41t39 -100t-39 -100.5t-98 -41.5q-57 0 -97 41t-40 101z" />
<glyph unicode="&#x458;" horiz-adv-x="575" d="M-12 -289q63 45 100 91t55.5 91.5t23.5 86t5 75.5v742l-111 26v166h414v-854q0 -72 -10 -148.5t-48 -153.5t-115 -150.5t-212 -139.5zM150 1305q0 70 48 120t117 50q70 0 117 -51.5t47 -118.5q0 -68 -47 -117t-117 -49t-117.5 47t-47.5 119z" />
<glyph unicode="&#x459;" horiz-adv-x="1521" d="M2 123q61 45 98 86t56.5 90t25.5 113.5t6 158.5v416h736v-362h184q66 0 131.5 -14.5t117.5 -49.5t85 -94t33 -150q0 -92 -35 -153.5t-89.5 -97t-119 -51t-121.5 -15.5h-475v754h-178v-174q0 -139 -17.5 -239.5t-57.5 -175.5t-103.5 -130t-155.5 -103zM924 211h145 q35 0 72 25.5t37 80.5q0 53 -36 75t-89 22h-129v-203z" />
<glyph unicode="&#x45a;" horiz-adv-x="1546" d="M84 0v989h291v-364h282v364h289v-364h187q66 0 131 -14.5t117.5 -49.5t84 -94t31.5 -150q0 -92 -35 -153.5t-88 -97t-117.5 -51t-123.5 -15.5h-476v416h-282v-416h-291zM946 211h146q35 0 71.5 25.5t36.5 80.5q0 53 -36 75t-89 22h-129v-203z" />
<glyph unicode="&#x45b;" horiz-adv-x="1015" d="M2 1102v155h90v193h295v-193h313v-155h-313v-219l113 73q33 23 69.5 38.5t65.5 15.5q100 0 158.5 -37t87 -91.5t37 -115.5t8.5 -109v-657h-295v659q0 57 -17.5 94.5t-81.5 37.5q-35 0 -74.5 -18.5t-68.5 -37.5v-735h-297v1102h-90z" />
<glyph unicode="&#x45c;" horiz-adv-x="1026" d="M92 0v985h297v-420h4l289 420h332l-348 -455l344 -530h-342l-275 485h-4v-485h-297zM381 1155l166 393l231 -102l-250 -359z" />
<glyph unicode="&#x45e;" horiz-adv-x="1036" d="M25 987h309l112 -424l68 -262h8l80 279l127 407h297l-477 -1397h-281l142 453l-99 104zM211 1436h172q8 -61 47 -114.5t105 -53.5q33 0 59.5 14t45.5 39t31.5 54.5t16.5 60.5h166q0 -59 -20.5 -122t-61.5 -113t-100.5 -83t-136.5 -33q-80 0 -140.5 33t-101.5 83 t-61.5 112.5t-20.5 122.5z" />
<glyph unicode="&#x45f;" horiz-adv-x="1024" d="M84 0v989h293v-766h270v766h293v-989h-309l-21 -313h-194l-23 313h-309z" />
<glyph unicode="&#x490;" horiz-adv-x="948" d="M90 0v1403h580l63 319h182v-569h-514v-1153h-311z" />
<glyph unicode="&#x491;" horiz-adv-x="808" d="M72 0v987h499l58 285h153v-516h-415v-756h-295z" />
<glyph unicode="&#x4d9;" horiz-adv-x="976" d="M59 575h545q0 47 -8 87t-28.5 70t-57.5 47.5t-94 17.5q-43 0 -97.5 -10.5t-140.5 -45.5l-65 193q84 41 169 63.5t171 22.5q143 0 234 -43t142.5 -113.5t70 -165t18.5 -194.5q0 -66 -13.5 -157t-58.5 -174t-133 -141.5t-236 -58.5q-154 0 -236.5 56.5t-122.5 143.5 t-48.5 193.5t-10.5 208.5zM350 422q0 -47 4 -91t17.5 -77t39 -52.5t66.5 -19.5q37 0 60.5 19.5t39 51.5t22.5 76t9 93h-258z" />
<glyph unicode="&#x2000;" horiz-adv-x="941" />
<glyph unicode="&#x2001;" horiz-adv-x="1882" />
<glyph unicode="&#x2002;" horiz-adv-x="941" />
<glyph unicode="&#x2003;" horiz-adv-x="1882" />
<glyph unicode="&#x2004;" horiz-adv-x="627" />
<glyph unicode="&#x2005;" horiz-adv-x="470" />
<glyph unicode="&#x2006;" horiz-adv-x="313" />
<glyph unicode="&#x2007;" horiz-adv-x="313" />
<glyph unicode="&#x2008;" horiz-adv-x="235" />
<glyph unicode="&#x2009;" horiz-adv-x="376" />
<glyph unicode="&#x200a;" horiz-adv-x="104" />
<glyph unicode="&#x2010;" horiz-adv-x="747" d="M92 422v215h563v-215h-563z" />
<glyph unicode="&#x2011;" horiz-adv-x="747" d="M92 422v215h563v-215h-563z" />
<glyph unicode="&#x2012;" horiz-adv-x="747" d="M92 422v215h563v-215h-563z" />
<glyph unicode="&#x2013;" horiz-adv-x="997" d="M78 428v195h840v-195h-840z" />
<glyph unicode="&#x2014;" horiz-adv-x="2021" d="M90 426v195h1839v-195h-1839z" />
<glyph unicode="&#x2018;" horiz-adv-x="569" d="M84 895l209 575l170 -45l-64 -530h-315z" />
<glyph unicode="&#x2019;" horiz-adv-x="569" d="M86 940l61 530l318 3l-209 -576z" />
<glyph unicode="&#x201a;" horiz-adv-x="688" d="M143 -227l70 540h340l-221 -587z" />
<glyph unicode="&#x201c;" horiz-adv-x="948" d="M68 895l215 582l170 -45l-66 -537h-319zM459 895l213 582l170 -45l-66 -537h-317z" />
<glyph unicode="&#x201d;" horiz-adv-x="948" d="M70 942l65 537h318l-211 -582zM459 942l67 537h318l-213 -582z" />
<glyph unicode="&#x201e;" horiz-adv-x="1157" d="M143 -227l70 540h340l-221 -587zM604 -227l70 540h340l-221 -587z" />
<glyph unicode="&#x2020;" horiz-adv-x="1067" d="M117 758v229h270v375h289v-375h276v-229h-276v-1065h-289v1065h-270z" />
<glyph unicode="&#x2021;" horiz-adv-x="1067" d="M117 96v232h270v430h-270v229h270v375h289v-375h276v-229h-276v-430h276v-232h-276v-403h-289v403h-270z" />
<glyph unicode="&#x2022;" horiz-adv-x="931" d="M150 522q0 66 25.5 123t68.5 100t100 69t123 26t123 -26t100 -69t68.5 -100t25.5 -123t-25.5 -123t-68.5 -100t-100 -67.5t-123 -24.5t-123 24.5t-100 67.5t-68.5 100.5t-25.5 122.5z" />
<glyph unicode="&#x2026;" horiz-adv-x="1835" d="M125 162q0 74 52 126t128 52q37 0 69 -14.5t55.5 -38t36.5 -56t13 -69.5t-13 -69t-36.5 -56.5t-55.5 -38.5t-69 -14q-76 0 -128 51t-52 127zM717 162q0 74 52 126t126 52t125 -52t51 -126q0 -37 -13.5 -69t-38 -56.5t-56 -38.5t-68.5 -14q-74 0 -126 51t-52 127z M1333 162q0 74 52.5 125t125.5 51q37 0 69 -14.5t55.5 -38t38 -55t14.5 -68.5t-14.5 -70t-38 -57.5t-55.5 -38.5t-69 -14q-74 0 -126 52t-52 128z" />
<glyph unicode="&#x202f;" horiz-adv-x="376" />
<glyph unicode="&#x2030;" horiz-adv-x="2572" d="M55 926q0 86 17.5 163.5t58.5 138t107.5 96.5t164.5 36t165 -35t107 -95.5t57.5 -139t17.5 -164.5q0 -92 -15.5 -172t-54.5 -139.5t-107 -94.5t-170 -35t-168.5 35t-106.5 94.5t-56.5 139.5t-16.5 172zM287 926q0 -123 22.5 -198t93.5 -75q70 0 92.5 77t22.5 196 q0 53 -4 102t-16.5 86t-35 59.5t-59.5 22.5t-59 -21.5t-35.5 -58.5t-17.5 -86t-4 -104zM563 -53l457 1466h194l-458 -1466h-193zM1034 414q0 86 17.5 163.5t58.5 138t107.5 96.5t164.5 36t165 -35t107 -95.5t57.5 -139t17.5 -164.5q0 -90 -15.5 -170t-54.5 -139.5 t-107 -94.5t-170 -35t-168.5 34t-106.5 93.5t-56.5 139.5t-16.5 172zM1266 414q0 -123 22.5 -198t93.5 -75q70 0 92.5 77t22.5 196q0 55 -4 104t-16.5 86t-35 58.5t-59.5 21.5t-59.5 -20.5t-35.5 -57.5t-17 -86t-4 -106zM1821 414q0 86 17 163.5t58 138t108 96.5t165 36 t164.5 -35t106.5 -95.5t57.5 -139t17.5 -164.5q0 -90 -15.5 -170t-54.5 -139.5t-106.5 -94.5t-169.5 -35t-169 34t-107 93.5t-56 139.5t-16 172zM2052 414q0 -123 22.5 -198t94.5 -75q70 0 92.5 77t22.5 196q0 55 -4.5 104t-16.5 86t-34.5 58.5t-59.5 21.5t-59.5 -20.5 t-36 -57.5t-17.5 -86t-4 -106z" />
<glyph unicode="&#x2039;" horiz-adv-x="714" d="M63 442v76l404 455l151 -99l-262 -395l260 -381l-151 -104z" />
<glyph unicode="&#x203a;" horiz-adv-x="714" d="M68 874l153 99l402 -455v-76l-400 -448l-153 104l258 381z" />
<glyph unicode="&#x2044;" horiz-adv-x="385" d="M-133 -53l457 1466h194l-459 -1466h-192z" />
<glyph unicode="&#x205f;" horiz-adv-x="470" />
<glyph unicode="&#x20ac;" d="M63 473v129h793v-129h-346q0 -78 17.5 -128t47 -77.5t67.5 -38t79 -10.5q59 0 119.5 13.5t136.5 43.5q20 -53 39.5 -106t42.5 -107q-158 -92 -387 -92q-236 2 -361 131t-125 371h-123zM63 694v131h125q14 106 53.5 202.5t104 167.5t156.5 113t215 42q111 0 189.5 -22.5 t140.5 -51.5l-82 -207q-49 18 -102.5 27.5t-106.5 9.5q-109 0 -167.5 -74t-74.5 -207h342v-131h-793z" />
<glyph unicode="&#x2122;" horiz-adv-x="1312" d="M61 1272v131h457v-131h-151v-537h-158v537h-148zM586 735v664h172q41 -76 72.5 -155t70.5 -157h2q35 78 69 156t75 156h172v-664h-152v393h-6l-109 -237h-100q-27 61 -54.5 120.5t-56.5 118.5h-4v-395h-151z" />
<glyph unicode="&#x2202;" horiz-adv-x="1011" d="M41 461q0 113 34 203t91 153.5t134 97t163 33.5q121 0 239 -76q-6 86 -31.5 160t-66.5 127t-97 83t-122 30q-29 0 -70 -6t-102 -29v213q49 12 98 19.5t90 7.5q150 0 256.5 -62.5t174 -167t98.5 -243t31 -289.5q0 -186 -38 -325.5t-104.5 -231.5t-156 -138.5t-191.5 -46.5 q-90 0 -168 32t-136 93.5t-92 152.5t-34 210zM295 465q0 -141 54 -212t126 -71q57 0 99 42t71 106.5t44.5 141.5t19.5 149q-63 70 -125 95t-109 25q-41 0 -73.5 -24.5t-56 -64.5t-37 -89t-13.5 -98z" />
<glyph unicode="&#x220f;" horiz-adv-x="1185" d="M94 -166v1569h1006v-1569h-312v1319h-385v-1319h-309z" />
<glyph unicode="&#x2211;" horiz-adv-x="1030" d="M61 68l269 561l-242 553v221h856v-250h-504l226 -524l-258 -541h569v-250h-916v230z" />
<glyph unicode="&#x221a;" horiz-adv-x="1105" d="M37 797l305 118l225 -665l291 1427h205l-373 -1843h-203l-272 823q-8 -4 -24.5 -9t-35 -10t-34 -10t-23.5 -7z" />
<glyph unicode="&#x221e;" horiz-adv-x="1511" d="M92 565q0 68 26.5 129.5t74 107.5t109.5 73.5t134 27.5q49 0 95.5 -16.5t89.5 -43t78.5 -59t64.5 -65.5q66 86 143.5 135t194.5 49q70 0 130 -25.5t104 -69.5t69 -106.5t25 -136.5q0 -68 -27 -129t-73 -108t-108.5 -75t-134.5 -28q-51 0 -96 16.5t-86 42t-76.5 59.5 t-66.5 71q-33 -39 -69 -73t-77 -59.5t-89 -41t-105 -15.5q-70 0 -130.5 25.5t-104.5 71t-69.5 108t-25.5 135.5zM305 565q0 -59 38 -101t89 -42q59 0 109.5 42t89.5 99q-35 51 -85.5 96.5t-109.5 45.5q-53 0 -92 -41t-39 -99zM889 565q47 -55 96 -99t107 -44q49 0 87 43 t38 100q0 59 -36 99.5t-87 40.5q-55 0 -106.5 -40t-98.5 -100z" />
<glyph unicode="&#x222b;" horiz-adv-x="602" d="M-109 -262l35 156q23 -4 45.5 -8.5t42.5 -4.5q29 0 54.5 5t47 33t37 84.5t25.5 160.5q4 59 6 157.5t2 216t1 242.5t3 236q4 301 88 442t244 141q37 0 80 -7t94 -27l-32 -160q-51 10 -84 10q-25 0 -50.5 -5t-48 -30.5t-40 -83t-23.5 -161.5q-6 -90 -8 -203t-3 -228.5 t-2.5 -225t-5.5 -193.5q-4 -166 -26.5 -277.5t-63.5 -180.5t-101.5 -97.5t-137.5 -28.5q-37 0 -82 8t-97 29z" />
<glyph unicode="&#x2248;" d="M43 297q20 35 53 72t74 66.5t87 49t95 19.5q57 0 110.5 -19.5t102.5 -43t96.5 -43t96.5 -19.5q59 0 95 26.5t85 86.5l149 -132q-25 -39 -60.5 -76.5t-78.5 -67.5t-89 -48t-91 -18q-59 0 -111.5 20t-102.5 44t-98 44.5t-98 20.5q-41 0 -87 -30t-87 -83zM43 688 q20 35 53 71t74 65.5t87 49t95 19.5q57 0 110.5 -19.5t102.5 -42t96.5 -42t96.5 -19.5q59 0 95 27.5t85 85.5l149 -131q-25 -39 -60.5 -77t-78.5 -69t-89 -49t-91 -18q-59 0 -111.5 20.5t-102.5 44t-98 44t-98 20.5q-41 0 -87 -29t-87 -82z" />
<glyph unicode="&#x2260;" d="M80 217v201h311l141 209h-452v200h582l147 222h199l-152 -222h193v-200h-322l-141 -209h463v-201h-592l-150 -219h-194l149 219h-182z" />
<glyph unicode="&#x2264;" d="M78 0v199h969v-199h-969zM78 655v187q225 90 448.5 176t448.5 176l74 -190l-689 -252l689 -275l-72 -194z" />
<glyph unicode="&#x2265;" d="M78 477l690 273q-174 66 -345 128t-345 126q18 49 37.5 96t38.5 94q223 -90 447 -176t448 -176v-187l-897 -372zM80 0v199h969v-199h-969z" />
<glyph unicode="&#x25ca;" horiz-adv-x="1085" d="M78 651l358 690h168l352 -690l-354 -688h-168q-8 16 -35.5 69.5t-64.5 124t-78 149.5t-78 149.5t-64.5 124t-35.5 71.5zM315 653q8 -20 39 -79.5t66 -127t64.5 -128t37.5 -78.5q10 20 40 78.5t62.5 126t61.5 127t39 79.5l-207 414q-10 -20 -38.5 -79.5t-62.5 -126 t-63.5 -126t-38.5 -80.5z" />
<glyph unicode="&#xe000;" horiz-adv-x="983" d="M0 0v983h983v-983h-983z" />
</font>
</defs>
</svg>
